<svg width="32" height="32" viewBox="0 0 32 32" fill="none" xmlns="http://www.w3.org/2000/svg">
<path d="M30 0.999967C30 0.829438 29.9564 0.661744 29.8733 0.512822C29.7902 0.363899 29.6704 0.238695 29.5253 0.149109C29.3802 0.0595236 29.2146 0.00853218 29.0443 0.000981027C28.8739 -0.00657012 28.7045 0.0295699 28.552 0.105967L12.552 8.10597C12.3861 8.1891 12.2466 8.31674 12.1491 8.47463C12.0516 8.63251 12 8.81441 12 8.99997V15.28L0.684 19.052C0.484956 19.1183 0.311804 19.2455 0.18905 19.4156C0.0662962 19.5857 0.000159293 19.7902 0 20L0 31C0 31.2652 0.105357 31.5195 0.292893 31.7071C0.48043 31.8946 0.734784 32 1 32H19C19.2652 32 19.5196 31.8946 19.7071 31.7071C19.8946 31.5195 20 31.2652 20 31V28H22V31C22 31.2652 22.1054 31.5195 22.2929 31.7071C22.4804 31.8946 22.7348 32 23 32H29C29.2652 32 29.5196 31.8946 29.7071 31.7071C29.8946 31.5195 30 31.2652 30 31V0.999967ZM4 22H6V24H4V22ZM8 22H10V24H8V22ZM6 26V28H4V26H6ZM8 26H10V28H8V26ZM26 5.99997V7.99997H24V5.99997H26ZM16 9.99997H18V12H16V9.99997ZM18 14V16H16V14H18ZM16 18H18V20H16V18ZM20 18H22V20H20V18ZM18 22V24H16V22H18ZM20 22H22V24H20V22ZM26 18V20H24V18H26ZM24 22H26V24H24V22ZM20 14H22V16H20V14ZM26 14V16H24V14H26ZM22 9.99997V12H20V9.99997H22ZM24 9.99997H26V12H24V9.99997Z" fill="url(#paint0_linear_127_216)"/>
<defs>
<linearGradient id="paint0_linear_127_216" x1="15" y1="0" x2="15" y2="32" gradientUnits="userSpaceOnUse">
<stop stop-color="#AE8625"/>
<stop offset="0.35" stop-color="#F7EF8A"/>
<stop offset="0.665" stop-color="#D2AC47"/>
<stop offset="1" stop-color="#EDC967"/>
</linearGradient>
</defs>
</svg>
