<svg width="32" height="32" viewBox="0 0 32 32" fill="none" xmlns="http://www.w3.org/2000/svg">
<g clip-path="url(#clip0_127_213)">
<path d="M15.3468 16.087C14.7628 16.631 10.0823 21.172 10.0823 21.172L11.3318 22.404C11.3318 22.404 15.4903 18.566 16.1148 17.9855C16.2693 17.8425 16.5308 17.57 17.0143 17.57H31.1968V15.606H16.5213C16.0923 15.6065 15.6858 15.775 15.3468 16.087ZM23.7493 5.41149C25.4123 5.41149 26.3198 4.25999 26.3198 2.84099C26.3197 2.33273 26.1689 1.83592 25.8865 1.41336C25.604 0.9908 25.2027 0.661475 24.7331 0.467019C24.2635 0.272564 23.7468 0.221712 23.2483 0.320892C22.7498 0.420072 22.2919 0.66483 21.9325 1.02422C21.5732 1.38361 21.3284 1.8415 21.2292 2.33998C21.13 2.83847 21.1809 3.35517 21.3753 3.82475C21.5698 4.29434 21.8991 4.69572 22.3217 4.97815C22.7442 5.26059 23.2411 5.41139 23.7493 5.41149ZM19.9383 9.82849H20.8003L19.5373 14.366H27.9623L26.6983 9.82849H27.5603L28.8713 14.366H31.0983L29.3083 8.34499C29.0718 7.51349 28.0203 6.04049 26.1998 6.04049H21.2988C19.4793 6.04049 18.4288 7.51349 18.1903 8.34499L16.4028 14.366H18.6298L19.9383 9.82849ZM12.6513 14.128L10.3888 9.90949C10.3888 9.90949 10.2558 9.70849 10.0093 9.82799C9.7878 9.93499 9.8878 10.1845 9.8878 10.1845L10.6383 11.617L11.1053 12.5095L10.5668 12.267C9.6128 11.837 9.08681 11.6535 8.8758 11.559C8.8383 11.5415 8.6533 11.44 8.5653 11.2465C8.3153 10.6875 7.2478 7.98549 7.0083 7.38799C6.8058 6.88249 6.3063 6.16449 5.2798 5.91049C4.1113 5.62149 2.9333 6.35849 2.6553 7.53099L1.0608 14.2515C0.918805 14.7935 0.674805 16.2595 0.674805 16.8775L0.685305 30.0045C0.693305 31.112 1.4928 32.005 2.5993 32C3.7043 31.9965 4.4608 31.096 4.4573 29.99L4.4548 18.869L6.1553 11.6915C6.3538 12.177 6.5998 12.7685 6.6803 12.9105C6.8718 13.2455 7.0608 13.476 7.4468 13.6575C7.4468 13.6575 9.67231 14.5785 10.5338 14.9715C10.7799 15.0652 11.0495 15.0778 11.3032 15.0075C11.557 14.9371 11.7816 14.7875 11.9443 14.5805L12.0633 14.334L12.1043 14.4125C12.1043 14.4125 12.3578 14.859 12.7323 14.8795C12.8398 14.539 12.6518 14.128 12.6518 14.128H12.6513ZM9.2113 2.81899C9.2113 3.15658 9.14481 3.49087 9.01562 3.80277C8.88643 4.11467 8.69707 4.39806 8.45835 4.63678C8.21963 4.8755 7.93624 5.06486 7.62434 5.19405C7.31244 5.32324 6.97815 5.38974 6.64055 5.38974C6.30296 5.38974 5.96867 5.32324 5.65677 5.19405C5.34487 5.06486 5.06148 4.8755 4.82276 4.63678C4.58404 4.39806 4.39468 4.11467 4.26549 3.80277C4.1363 3.49087 4.0698 3.15658 4.0698 2.81899C4.07923 2.14339 4.35422 1.49866 4.8353 1.02423C5.31639 0.549813 5.96489 0.283838 6.64055 0.283838C7.31622 0.283838 7.96472 0.549813 8.44581 1.02423C8.92689 1.49866 9.20188 2.14339 9.2113 2.81899Z" fill="url(#paint0_linear_127_213)"/>
<path d="M10.3693 19.5934L15.3783 14.9314L14.7273 14.2329L9.71826 18.8954L10.3693 19.5934Z" fill="url(#paint1_linear_127_213)"/>
</g>
<defs>
<linearGradient id="paint0_linear_127_213" x1="15.9358" y1="0.271484" x2="15.9358" y2="32" gradientUnits="userSpaceOnUse">
<stop stop-color="#AE8625"/>
<stop offset="0.35" stop-color="#F7EF8A"/>
<stop offset="0.665" stop-color="#D2AC47"/>
<stop offset="1" stop-color="#EDC967"/>
</linearGradient>
<linearGradient id="paint1_linear_127_213" x1="12.5483" y1="14.2329" x2="12.5483" y2="19.5934" gradientUnits="userSpaceOnUse">
<stop stop-color="#AE8625"/>
<stop offset="0.35" stop-color="#F7EF8A"/>
<stop offset="0.665" stop-color="#D2AC47"/>
<stop offset="1" stop-color="#EDC967"/>
</linearGradient>
<clipPath id="clip0_127_213">
<rect width="32" height="32" fill="white"/>
</clipPath>
</defs>
</svg>
