<svg width="32" height="32" viewBox="0 0 32 32" fill="none" xmlns="http://www.w3.org/2000/svg">
<path d="M16.125 1.36816C16.0938 1.36816 16.05 1.36816 16.0125 1.37566C15.725 1.42879 15.3813 1.69441 15.1562 2.30129C14.9187 2.90754 14.8687 3.77191 15.075 4.69754C15.2875 5.61191 15.725 6.40004 16.2125 6.88129C16.6875 7.36254 17.1187 7.49379 17.4062 7.44379C17.7062 7.40004 18.0375 7.12504 18.2625 6.52504C18.5 5.92254 18.5625 5.04629 18.35 4.12816C18.1313 3.20316 17.7 2.42254 17.2125 1.94441C16.8 1.51941 16.4187 1.36816 16.125 1.36816ZM23.3375 9.46254C22.65 9.48129 21.7812 9.66254 20.9375 10.0188C19.9625 10.4438 19.2125 11.0125 18.8 11.55C18.3875 12.0688 18.35 12.4625 18.4813 12.6938C18.6188 12.925 19 13.1438 19.7313 13.175C20.4625 13.2188 21.45 13.0375 22.4188 12.625C23.3875 12.2063 24.15 11.6313 24.5625 11.1063C24.975 10.5875 25.0063 10.1813 24.875 9.95004C24.7437 9.71254 24.3563 9.50629 23.625 9.48129C23.525 9.46254 23.4375 9.46254 23.3375 9.46254ZM14.8188 15.2688C14.4062 15.275 14.0312 15.325 13.6938 15.4125C12.9563 15.6 12.5312 15.9375 12.3938 16.3438C12.2375 16.75 12.3938 17.2375 12.8813 17.7625C13.3938 18.275 14.2375 18.7688 15.2875 19.0438C16.3313 19.3188 17.3375 19.3125 18.0875 19.1125C18.8438 18.9188 19.2687 18.575 19.4062 18.175C19.55 17.7688 19.4062 17.2875 18.9 16.7563C18.4062 16.2438 17.5625 15.75 16.5125 15.4813C15.9188 15.325 15.3375 15.2625 14.8188 15.2688ZM24.8625 18.9L21 20.7313C21.2625 20.7438 21.9188 20.7625 21.9188 20.7625L22.3312 21.3063L25.75 19.525L24.8625 18.9ZM21.4562 18.9063L17.8687 20.6063C18.2125 20.625 19.025 20.6375 19.35 20.6563L22.4625 19.1813L21.4562 18.9063ZM27.2437 19.5813L22.8375 21.9188L23.7437 23.0875L28.4 20.3L27.2437 19.5813ZM9.81875 20.15C9.6295 20.1497 9.44081 20.1706 9.25625 20.2125C4.7875 21.2438 2.15 21.3313 1.36875 21.3313H1.125V28.05C1.125 28.05 1.85 27.9438 3.05625 27.9375C5.3875 27.9375 9.49375 28.3375 13.4937 30.675C13.7062 30.8063 14.1625 30.8563 14.7312 30.8563C16.25 30.8563 18.5562 30.4938 19.0875 30.2938C24.4375 28.2875 30.875 22.7813 30.875 22.7813L28.8438 21.0063C28.8438 21.0063 23.8563 24.1875 23.225 24.4938C17.5312 27.2875 12.9187 25.5438 12.9187 25.5438C12.9187 25.5438 20.4125 25.7313 22.8188 23.8375L21.4062 21.7125C21.4062 21.7125 16.2312 21.5688 14.3875 21.325C13.425 21.2 11.3438 20.15 9.81875 20.15Z" fill="url(#paint0_linear_127_204)"/>
<defs>
<linearGradient id="paint0_linear_127_204" x1="16" y1="1.36816" x2="16" y2="30.8563" gradientUnits="userSpaceOnUse">
<stop stop-color="#AE8625"/>
<stop offset="0.35" stop-color="#F7EF8A"/>
<stop offset="0.665" stop-color="#D2AC47"/>
<stop offset="1" stop-color="#EDC967"/>
</linearGradient>
</defs>
</svg>
