<svg width="32" height="32" viewBox="0 0 32 32" fill="none" xmlns="http://www.w3.org/2000/svg">
<path fill-rule="evenodd" clip-rule="evenodd" d="M19.3335 7.33313C19.3335 4.75582 17.2441 2.6665 14.6668 2.6665L14.4107 2.67338C11.9525 2.80632 10.0001 4.84175 10.0001 7.33313C10.0001 9.9105 12.0895 11.9998 14.6668 11.9998L14.9229 11.9929C17.3811 11.86 19.3335 9.82457 19.3335 7.33313ZM16.0001 22.6665C16.0001 24.1236 16.3897 25.4898 17.0704 26.6665H5.3335V21.8665C5.3335 17.9894 8.31275 14.8281 12.0449 14.6725L12.3334 14.6665H17.0001C18.2147 14.6665 19.3571 14.9847 20.3527 15.5444C17.7684 16.8706 16.0001 19.5621 16.0001 22.6665ZM20.0816 28.0599L24.0001 25.6665L27.9187 28.0599L26.8533 23.5935L30.3405 20.6064L25.7635 20.2394L24.0001 15.9998L22.2367 20.2394L17.6597 20.6064L21.1469 23.5935L20.0816 28.0599Z" fill="url(#paint0_linear_127_211)"/>
<defs>
<linearGradient id="paint0_linear_127_211" x1="17.837" y1="2.6665" x2="17.837" y2="28.0599" gradientUnits="userSpaceOnUse">
<stop stop-color="#AE8625"/>
<stop offset="0.35" stop-color="#F7EF8A"/>
<stop offset="0.665" stop-color="#D2AC47"/>
<stop offset="1" stop-color="#EDC967"/>
</linearGradient>
</defs>
</svg>
