<svg width="32" height="32" viewBox="0 0 32 32" fill="none" xmlns="http://www.w3.org/2000/svg">
<g clip-path="url(#clip0_127_208)">
<path d="M10.6665 17.0666V13.2415L13.8665 10.0415L17.0665 13.2415V17.0666H10.6665Z" fill="url(#paint0_linear_127_208)"/>
<path fill-rule="evenodd" clip-rule="evenodd" d="M0 13.8669C0.000284415 11.6317 0.540888 9.4297 1.57575 7.44851C2.61061 5.46733 4.10906 3.76567 5.94343 2.48852C7.7778 1.21137 9.89371 0.396574 12.1109 0.113561C14.3281 -0.169453 16.5808 0.0877027 18.6772 0.863117C20.7736 1.63853 22.6514 2.90922 24.1508 4.56692C25.6501 6.22463 26.7265 8.22021 27.2883 10.3836C27.85 12.5471 27.8805 14.8143 27.377 16.992C26.8735 19.1697 25.8511 21.1935 24.3968 22.8909L31.6885 30.1783L30.1803 31.6866L22.8885 24.397C20.8748 26.1222 18.4087 27.2339 15.7825 27.6002C13.1562 27.9666 10.48 27.5723 8.07107 26.464C5.66211 25.3557 3.62143 23.58 2.19092 21.3473C0.760411 19.1146 6.04552e-05 16.5185 0 13.8669ZM18.8885 12.045L14.6219 7.77832C14.5228 7.67899 14.4051 7.60018 14.2755 7.5464C14.1459 7.49263 14.007 7.46495 13.8667 7.46495C13.7264 7.46495 13.5874 7.49263 13.4578 7.5464C13.3283 7.60018 13.2106 7.67899 13.1115 7.77832L8.8448 12.045C8.74581 12.1442 8.66735 12.262 8.61391 12.3916C8.56046 12.5212 8.53308 12.66 8.53333 12.8002V18.1335C8.53333 18.4164 8.64571 18.6877 8.84575 18.8878C9.04579 19.0878 9.3171 19.2002 9.6 19.2002H18.1333C18.4162 19.2002 18.6875 19.0878 18.8876 18.8878C19.0876 18.6877 19.2 18.4164 19.2 18.1335V12.8002C19.2003 12.66 19.1729 12.5212 19.1194 12.3916C19.066 12.262 18.9875 12.1442 18.8885 12.045Z" fill="url(#paint1_linear_127_208)"/>
</g>
<defs>
<linearGradient id="paint0_linear_127_208" x1="13.8665" y1="10.0415" x2="13.8665" y2="17.0666" gradientUnits="userSpaceOnUse">
<stop stop-color="#AE8625"/>
<stop offset="0.35" stop-color="#F7EF8A"/>
<stop offset="0.665" stop-color="#D2AC47"/>
<stop offset="1" stop-color="#EDC967"/>
</linearGradient>
<linearGradient id="paint1_linear_127_208" x1="15.8443" y1="0.00195312" x2="15.8443" y2="31.6866" gradientUnits="userSpaceOnUse">
<stop stop-color="#AE8625"/>
<stop offset="0.35" stop-color="#F7EF8A"/>
<stop offset="0.665" stop-color="#D2AC47"/>
<stop offset="1" stop-color="#EDC967"/>
</linearGradient>
<clipPath id="clip0_127_208">
<rect width="32" height="32" fill="white"/>
</clipPath>
</defs>
</svg>
