<svg width="66" height="119" viewBox="0 0 66 119" fill="none" xmlns="http://www.w3.org/2000/svg">
<path fill-rule="evenodd" clip-rule="evenodd" d="M0 19.1976L65.6665 3.25024V68.9171L0 84.8645V19.1976Z" fill="#FF7D24"/>
<path fill-rule="evenodd" clip-rule="evenodd" d="M60.8685 34.8829L4.79785 21.2661V77.3365L60.8685 90.9536V34.8829Z" fill="#FFD349"/>
<path fill-rule="evenodd" clip-rule="evenodd" d="M56.0707 82.6832L0 96.3003V90.6959L56.0707 82.6832Z" fill="white"/>
<path d="M9.06946 49.0978H12.5892V49.1083C12.3814 49.5369 12.2636 49.7671 12.2355 49.7983H11.298C11.4278 50.0024 11.5149 50.2482 11.5605 50.5374H12.5629C12.5745 50.5411 12.5804 50.5478 12.5804 50.5583C12.3562 51.0078 12.2401 51.2346 12.2355 51.238H11.5869C11.5724 51.4662 11.491 51.7451 11.3408 52.0745C11.1361 52.4056 10.9443 52.6199 10.7632 52.7177C10.4228 52.9354 10.0968 53.0455 9.78577 53.0455V53.056C9.78577 53.0854 9.86252 53.2197 10.0156 53.4584L11.7507 56.2712V56.4056C11.7507 56.4178 11.7447 56.4246 11.7345 56.4246H10.9695C9.59438 54.2776 8.90576 53.1987 8.90576 53.1882V52.5347L8.91467 52.5085C9.03547 52.5329 9.17716 52.5452 9.34216 52.5452C10.1101 52.5452 10.5891 52.2086 10.7793 51.5396C10.8087 51.4401 10.8221 51.3389 10.8221 51.238H8.73352C8.72162 51.238 8.71558 51.2292 8.71558 51.2119C8.94548 50.7621 9.06356 50.5374 9.06946 50.5374H10.7322V50.5286C10.6347 50.2689 10.4507 50.0685 10.1792 49.9257C9.9833 49.8403 9.80778 49.7983 9.65308 49.7983H8.72437V49.7722C8.94857 49.3226 9.06356 49.0978 9.06946 49.0978ZM15.8445 56.3741V47.9073H13.7749V46.0313H13.89C14.6349 46.0313 15.2306 45.8628 15.6768 45.5283C16.1204 45.1938 16.4171 44.6934 16.5665 44.0247H18.1625V56.3741H15.8445ZM20.7587 56.3741V56.1757C20.7587 55.708 20.8023 55.2457 20.8896 54.7919C20.9772 54.3378 21.115 53.8808 21.299 53.4188C21.6715 52.4561 22.2579 51.4991 23.0581 50.5421C23.1752 50.4032 23.2606 50.3026 23.3156 50.2402L23.3756 50.1586C24.2515 49.0709 24.6907 48.1168 24.6907 47.301C24.6907 46.9231 24.6285 46.6348 24.5023 46.431C24.3756 46.2298 24.1939 46.1292 23.9595 46.1292C23.6259 46.1292 23.3846 46.2921 23.2327 46.6212C23.0836 46.9503 23.0074 47.4778 23.0074 48.1981V48.413H20.855V48.0867C20.855 46.7709 21.1288 45.762 21.674 45.0605C22.2189 44.3592 23.0054 44.0082 24.0284 44.0082C24.955 44.0082 25.6773 44.3102 26.1995 44.9166C26.7213 45.5229 26.9811 46.3602 26.9811 47.4343C26.9811 48.0678 26.8684 48.6687 26.6431 49.2396C26.42 49.8105 26.0658 50.3871 25.5856 50.9716C25.4818 51.0995 25.3276 51.2814 25.121 51.5209C24.2655 52.5051 23.7296 53.3181 23.5156 53.9595H26.9535V56.3741H20.7587ZM28.3492 56.3741V53.5681H30.7224V55.7842C30.7224 56.85 30.5407 57.6276 30.175 58.1115C29.8094 58.5982 29.2048 58.8728 28.3632 58.9355V57.9402C28.7794 57.8994 29.0945 57.7444 29.3105 57.4807C29.5242 57.2143 29.6322 56.8472 29.6322 56.3741H28.3492ZM35.7329 51.7465C35.4755 51.9367 35.2201 52.0808 34.9673 52.1735C34.7119 52.2659 34.4522 52.312 34.1875 52.312C33.4241 52.312 32.8563 51.9966 32.4813 51.363C32.1088 50.7323 31.9226 49.7698 31.9226 48.4783C31.9226 46.9802 32.1757 45.8627 32.6814 45.1285C33.1874 44.3918 33.9557 44.0247 34.9904 44.0247C35.4893 44.0247 35.9308 44.109 36.3146 44.2805C36.6987 44.4488 37.0298 44.7071 37.3081 45.0526C37.6092 45.4359 37.8232 45.9634 37.9451 46.6378C38.069 47.3118 38.1313 48.4972 38.1313 50.1912C38.1313 51.6731 38.099 52.7307 38.0349 53.3643C37.9681 54.0004 37.8601 54.5143 37.7058 54.9058C37.4921 55.4579 37.1449 55.882 36.6689 56.1757C36.193 56.4719 35.6133 56.6187 34.9304 56.6187C34.0197 56.6187 33.3138 56.344 32.8127 55.7921C32.3115 55.2402 32.0607 54.4545 32.0607 53.4377L34.2681 53.4459C34.2774 53.8263 34.3394 54.112 34.4568 54.3051C34.5741 54.4981 34.7442 54.5959 34.9696 54.5959C35.2522 54.5959 35.4523 54.4492 35.5697 54.1555C35.6867 53.8593 35.7443 53.3424 35.7443 52.6057C35.7443 52.3826 35.7443 52.2086 35.7423 52.0836C35.7397 51.9586 35.7375 51.8472 35.7329 51.7465ZM35.7859 48.1519C35.7859 47.4152 35.7239 46.8931 35.5997 46.5858C35.4775 46.2813 35.2661 46.1292 34.9696 46.1292C34.7096 46.1292 34.5234 46.2788 34.4154 46.5804C34.3071 46.8795 34.2544 47.4206 34.2544 48.201C34.2544 48.9487 34.3116 49.4763 34.4293 49.7833C34.5463 50.088 34.7465 50.2402 35.0294 50.2402C35.3143 50.2402 35.5098 50.0988 35.6201 49.8187C35.7307 49.5361 35.7859 48.9813 35.7859 48.1519ZM43.1305 51.7465C42.8728 51.9367 42.6177 52.0808 42.3646 52.1735C42.1095 52.2659 41.8498 52.312 41.5851 52.312C40.8217 52.312 40.2539 51.9966 39.8789 51.363C39.5064 50.7323 39.3202 49.7698 39.3202 48.4783C39.3202 46.9802 39.5733 45.8627 40.079 45.1285C40.585 44.3918 41.3529 44.0247 42.3878 44.0247C42.8867 44.0247 43.3282 44.109 43.7123 44.2805C44.0964 44.4488 44.4274 44.7071 44.7057 45.0526C45.0068 45.4359 45.2209 45.9634 45.3428 46.6378C45.4666 47.3118 45.5286 48.4972 45.5286 50.1912C45.5286 51.6731 45.4967 52.7307 45.4323 53.3643C45.3654 54.0004 45.2576 54.5143 45.1034 54.9058C44.8897 55.4579 44.5424 55.882 44.0662 56.1757C43.5906 56.4719 43.0109 56.6187 42.328 56.6187C41.4172 56.6187 40.7114 56.344 40.2103 55.7921C39.7088 55.2402 39.4583 54.4545 39.4583 53.4377L41.6656 53.4459C41.6749 53.8263 41.7371 54.112 41.8544 54.3051C41.9715 54.4981 42.1418 54.5959 42.3671 54.5959C42.6498 54.5959 42.8499 54.4492 42.9672 54.1555C43.0843 53.8593 43.1418 53.3424 43.1418 52.6057C43.1418 52.3826 43.1418 52.2086 43.1399 52.0836C43.1373 51.9586 43.135 51.8472 43.1305 51.7465ZM43.1835 48.1519C43.1835 47.4152 43.1213 46.8931 42.9971 46.5858C42.8752 46.2813 42.6636 46.1292 42.3671 46.1292C42.1072 46.1292 41.921 46.2788 41.8127 46.5804C41.7047 46.8795 41.652 47.4206 41.652 48.201C41.652 48.9487 41.7092 49.4763 41.8269 49.7833C41.9439 50.088 42.1439 50.2402 42.4268 50.2402C42.7119 50.2402 42.9074 50.0988 43.0177 49.8187C43.1282 49.5361 43.1835 48.9813 43.1835 48.1519ZM50.5278 51.7465C50.2704 51.9367 50.015 52.0808 49.7622 52.1735C49.5068 52.2659 49.2475 52.312 48.9827 52.312C48.2194 52.312 47.6512 51.9966 47.2765 51.363C46.9037 50.7323 46.7175 49.7698 46.7175 48.4783C46.7175 46.9802 46.9706 45.8627 47.4766 45.1285C47.9823 44.3918 48.7506 44.0247 49.7852 44.0247C50.2841 44.0247 50.7258 44.109 51.1099 44.2805C51.4939 44.4488 51.8249 44.7071 52.1033 45.0526C52.4043 45.4359 52.6181 45.9634 52.7402 46.6378C52.8641 47.3118 52.9263 48.4972 52.9263 50.1912C52.9263 51.6731 52.8942 52.7307 52.8298 53.3643C52.7629 54.0004 52.6552 54.5143 52.501 54.9058C52.287 55.4579 51.9401 55.882 51.4639 56.1757C50.988 56.4719 50.4082 56.6187 49.7256 56.6187C48.8148 56.6187 48.109 56.344 47.6078 55.7921C47.1064 55.2402 46.8555 54.4545 46.8555 53.4377L49.0631 53.4459C49.0725 53.8263 49.1347 54.112 49.252 54.3051C49.3691 54.4981 49.5395 54.5959 49.7648 54.5959C50.0474 54.5959 50.2475 54.4492 50.3645 54.1555C50.4819 53.8593 50.5394 53.3424 50.5394 52.6057C50.5394 52.3826 50.5394 52.2086 50.5372 52.0836C50.5349 51.9586 50.5323 51.8472 50.5278 51.7465ZM50.5808 48.1519C50.5808 47.4152 50.5188 46.8931 50.3947 46.5858C50.2728 46.2813 50.0613 46.1292 49.7648 46.1292C49.5049 46.1292 49.3185 46.2788 49.2103 46.5804C49.1023 46.8795 49.0496 47.4206 49.0496 48.201C49.0496 48.9487 49.1068 49.4763 49.2241 49.7833C49.3415 50.088 49.5413 50.2402 49.8242 50.2402C50.1094 50.2402 50.305 50.0988 50.4153 49.8187C50.5258 49.5361 50.5808 48.9813 50.5808 48.1519ZM54.0002 57.3467H53.2676L55.3726 48.3223H56.1067L54.0002 57.3467ZM56.3451 54.2097V52.6304H59.0425V54.2097H56.3451Z" fill="#102694"/>
<path d="M28.2345 64.727H29.3043V65.0961C29.3043 65.4485 29.3489 65.69 29.4368 65.8173C29.5247 65.9459 29.6771 66.0094 29.8934 66.0094C30.1199 66.0094 30.2916 65.9522 30.4099 65.8377C30.5283 65.7231 30.5868 65.5539 30.5868 65.3314C30.5868 65.1596 30.5463 65.0119 30.4635 64.8886C30.3822 64.7664 30.2039 64.6074 29.9303 64.4141L29.3834 64.026C28.91 63.6978 28.6099 63.4268 28.4814 63.2131C28.3527 62.9993 28.2893 62.7309 28.2893 62.4077C28.2893 61.9256 28.4318 61.5477 28.7179 61.2744C29.0042 61.0009 29.3984 60.8646 29.8999 60.8646C30.4328 60.8646 30.84 61.0097 31.1237 61.3011C31.4075 61.5911 31.5486 62.0083 31.5486 62.5529C31.5486 62.6076 31.5486 62.6495 31.5475 62.6787C31.5461 62.7093 31.5434 62.7349 31.5409 62.7578H30.5259V62.605C30.5259 62.2932 30.4748 62.0707 30.373 61.9358C30.2712 61.8023 30.1035 61.7348 29.8705 61.7348C29.699 61.7348 29.5651 61.7858 29.4673 61.8862C29.3693 61.9868 29.3197 62.1268 29.3197 62.306C29.3197 62.5478 29.54 62.8151 29.9788 63.1087L29.99 63.1153L30.5791 63.5147C30.9989 63.7933 31.2826 64.0552 31.4315 64.3036C31.5803 64.5502 31.6554 64.8645 31.6554 65.2475C31.6554 65.7691 31.5066 66.1721 31.2075 66.4548C30.9099 66.7385 30.4839 66.8797 29.9303 66.8797C29.354 66.8797 28.9254 66.7309 28.6431 66.4329C28.3619 66.1353 28.2207 65.6801 28.2207 65.0692C28.2207 65.0057 28.2255 64.8988 28.2345 64.75V64.727ZM33.8219 63.1394C33.6464 63.1394 33.5254 63.2258 33.4608 63.399C33.3959 63.5705 33.3639 63.9917 33.3639 64.6596C33.3639 65.2435 33.3971 65.6163 33.4634 65.7767C33.5281 65.9369 33.649 66.0171 33.8219 66.0171C34.0203 66.0171 34.1565 65.923 34.2305 65.7359C34.3042 65.5477 34.3398 65.0732 34.3398 64.3098C34.3398 63.8327 34.3042 63.5184 34.2305 63.367C34.1565 63.2156 34.0203 63.1394 33.8219 63.1394ZM34.3107 66.3771C34.2291 66.5387 34.1184 66.6583 33.9784 66.7385C33.8398 66.8173 33.6681 66.8567 33.4646 66.8567C33.0535 66.8567 32.765 66.6926 32.5983 66.3632C32.4316 66.0335 32.3488 65.4343 32.3488 64.5655C32.3488 63.7259 32.4342 63.1405 32.606 62.81C32.7777 62.4803 33.0714 62.315 33.4861 62.315C33.6973 62.315 33.8766 62.3621 34.0229 62.4562C34.1692 62.5517 34.2838 62.6929 34.3665 62.8811V62.4296H35.3104V68.1924H34.3107V66.3771ZM36.2179 66.7422V65.7118H37.1793V66.7422H36.2179ZM40.2174 68.1556V67.41C40.2379 67.41 40.258 67.4115 40.2809 67.4126C40.3028 67.414 40.3357 67.414 40.3777 67.414C40.5189 67.414 40.6219 67.391 40.6869 67.3451C40.7518 67.2995 40.7836 67.2244 40.7836 67.1226C40.7836 67.0909 40.7798 67.0515 40.7722 67.007C40.7645 66.9622 40.7556 66.9191 40.7428 66.8771L39.6372 62.4296H40.6906L41.2861 65.5412L41.8635 62.4296H42.8739L41.7531 67.1493C41.6524 67.5589 41.5203 67.8338 41.3562 67.975C41.1907 68.115 40.9273 68.1847 40.5673 68.1847C40.5126 68.1847 40.4568 68.1822 40.3981 68.1771C40.3397 68.1723 40.2798 68.1646 40.2174 68.1556ZM43.3917 66.7422V62.4296H44.347V63.1292C44.4833 62.8378 44.6297 62.6305 44.7847 62.5058C44.9401 62.3811 45.1294 62.3176 45.3534 62.315V63.5286C45.3165 63.5235 45.2784 63.5198 45.2413 63.5172C45.2044 63.5147 45.1588 63.5133 45.1041 63.5133C44.8904 63.5133 44.7212 63.577 44.5951 63.7029C44.4692 63.8302 44.4069 64.0005 44.4069 64.2143V66.7422H43.3917ZM46.8556 64.521C46.8556 65.1863 46.8876 65.6049 46.9526 65.7753C47.0172 65.9471 47.1382 66.0324 47.3137 66.0324C47.5121 66.0324 47.6483 65.9559 47.7223 65.8034C47.796 65.6506 47.8317 65.3376 47.8317 64.8631C47.8317 64.1012 47.796 63.6266 47.7223 63.437C47.6483 63.2488 47.5121 63.1547 47.3137 63.1547C47.1408 63.1547 47.0198 63.236 46.9552 63.399C46.8889 63.5606 46.8556 63.9356 46.8556 64.521ZM47.8583 66.2906C47.7756 66.4763 47.661 66.6175 47.5148 66.713C47.3685 66.8082 47.1891 66.8567 46.9779 66.8567C46.5632 66.8567 46.2695 66.6912 46.0977 66.3607C45.926 66.031 45.8406 65.4459 45.8406 64.6063C45.8406 63.7372 45.9234 63.1379 46.0901 62.8086C46.2568 62.4792 46.5453 62.315 46.9563 62.315C47.1599 62.315 47.3316 62.3544 47.4702 62.4347C47.6102 62.5135 47.7208 62.6342 47.8025 62.7958V61.002H48.8022V66.7422H47.8583V66.2906Z" fill="#102694"/>
<path d="M13.73 101.278V94.3035H14.5093V100.527H17.2917V101.278H13.73ZM18.0707 95.2493V94.3035H18.8221V95.2493H18.0707ZM18.0707 101.278V96.0654H18.8221V101.278H18.0707ZM19.9274 101.278V96.0654H20.6014V96.6931C20.7437 96.4473 20.9291 96.2601 21.161 96.1351C21.3914 96.0084 21.6634 95.9449 21.974 95.9449C22.268 95.9449 22.5089 96.0098 22.7006 96.1382C22.8939 96.2681 23.0253 96.4566 23.0979 96.7023C23.2524 96.4503 23.4412 96.2601 23.6637 96.1351C23.8879 96.0084 24.1507 95.9449 24.452 95.9449C24.8755 95.9449 25.1986 96.0547 25.4243 96.2744C25.6485 96.4952 25.7614 96.8106 25.7614 97.2233V101.278H25.0101V97.6763C25.0101 97.2542 24.956 96.9683 24.8463 96.8184C24.738 96.6684 24.5479 96.5941 24.2758 96.5941C23.9651 96.5941 23.7116 96.6917 23.5151 96.8881C23.319 97.0843 23.2201 97.3393 23.2201 97.65V101.278H22.4686V97.65C22.4686 97.2667 22.41 96.9946 22.2941 96.8339C22.1781 96.6746 21.9851 96.5941 21.7161 96.5941C21.3992 96.5941 21.1409 96.6901 20.9417 96.8801C20.7421 97.0703 20.6417 97.3147 20.6417 97.6129V101.278H19.9274ZM26.8389 95.2493V94.3035H27.5902V95.2493H26.8389ZM26.8389 101.278V96.0654H27.5902V101.278H26.8389ZM29.5304 100.201C29.5304 100.419 29.5689 100.561 29.6477 100.629C29.7268 100.697 29.9152 100.731 30.2103 100.731C30.2505 100.731 30.2832 100.729 30.3079 100.728C30.3343 100.726 30.3557 100.725 30.3744 100.722L30.379 101.359C30.3342 101.361 30.2724 101.363 30.1964 101.366C30.0096 101.376 29.8906 101.38 29.8379 101.38C29.4932 101.38 29.2367 101.312 29.068 101.175C28.8997 101.039 28.8163 100.831 28.8163 100.555V96.6683H28.0925V96.0654H28.8163V94.6741H29.5304V96.0654H30.379V96.6683H29.5304V100.201ZM31.5818 98.1152H33.3534V97.9745C33.3534 97.4923 33.2837 97.129 33.1431 96.8864C33.0025 96.6421 32.7921 96.5201 32.5106 96.5201C32.1968 96.5201 31.9635 96.6513 31.8104 96.9127C31.6574 97.1754 31.5818 97.5758 31.5818 98.1152ZM33.3624 99.5157H34.0768C34.0706 100.131 33.93 100.603 33.6531 100.929C33.3781 101.255 32.9838 101.417 32.4739 101.417C31.9126 101.417 31.4984 101.198 31.2308 100.76C30.9635 100.323 30.8306 99.6455 30.8306 98.7288C30.8306 97.7565 30.9635 97.0456 31.2308 96.5941C31.4984 96.1428 31.9187 95.9172 32.4922 95.9172C33.0333 95.9172 33.4354 96.1089 33.6996 96.4921C33.964 96.877 34.0952 97.4615 34.0952 98.2466C34.0952 98.3702 34.0953 98.4646 34.0939 98.5281C34.0922 98.5913 34.0889 98.6486 34.0858 98.6996L31.5818 98.7042V98.9346C31.5818 99.5855 31.6575 100.06 31.8091 100.358C31.9591 100.657 32.1999 100.805 32.5293 100.805C32.7859 100.805 32.9885 100.692 33.1385 100.468C33.2867 100.244 33.3624 99.9379 33.3624 99.5515V99.5157ZM37.6973 98.6331C37.6973 97.8726 37.6229 97.3424 37.4729 97.0425C37.323 96.744 37.0697 96.5941 36.7094 96.5941C36.3692 96.5941 36.1172 96.7566 35.9534 97.0797C35.7912 97.4026 35.7092 97.902 35.7092 98.5789C35.7092 99.3335 35.7863 99.8806 35.9425 100.221C36.097 100.561 36.3446 100.731 36.683 100.731C37.0416 100.731 37.3014 100.57 37.459 100.25C37.6181 99.9301 37.6973 99.3905 37.6973 98.6331ZM38.3804 101.278H37.6973V100.623C37.6306 100.851 37.4946 101.034 37.2891 101.173C37.085 101.311 36.8423 101.38 36.5657 101.38C36.0277 101.38 35.618 101.134 35.3351 100.644C35.0523 100.154 34.9116 99.4415 34.9116 98.5063C34.9116 97.6947 35.0536 97.0658 35.3365 96.6174C35.6211 96.1692 36.0168 95.9449 36.5239 95.9449C36.7989 95.9449 37.0415 96.0068 37.2518 96.1304C37.4605 96.2526 37.5935 96.4102 37.6477 96.6035V94.3035H38.3804V101.278ZM42.6283 97.6423H43.6499C44.1216 97.6423 44.4663 97.5296 44.6888 97.3054C44.9099 97.0797 45.021 96.7257 45.021 96.2432C45.021 95.7996 44.91 95.4782 44.6858 95.2789C44.4633 95.0793 44.1015 94.9803 43.6006 94.9803H42.6283V97.6423ZM41.8491 101.278V94.3035H43.6377C44.3983 94.3035 44.9533 94.4593 45.3025 94.7717C45.6534 95.0838 45.8281 95.5771 45.8281 96.2512C45.8281 96.942 45.6458 97.4647 45.281 97.817C44.9144 98.1711 44.3782 98.347 43.6687 98.347H42.6283V101.278H41.8491ZM46.689 101.278V94.3035H47.4126V101.278H46.689ZM48.3666 98.6733C48.3666 97.7381 48.5164 97.0456 48.8163 96.5941C49.1177 96.1428 49.5769 95.9172 50.1965 95.9172C50.8241 95.9172 51.2865 96.1397 51.5833 96.5864C51.8818 97.0331 52.03 97.7288 52.03 98.6733C52.03 99.6178 51.8817 100.312 51.5864 100.754C51.2896 101.196 50.8272 101.417 50.1965 101.417C49.5613 101.417 49.0992 101.198 48.8053 100.759C48.5133 100.32 48.3666 99.624 48.3666 98.6733ZM49.1454 98.6719C49.1454 99.4509 49.2259 99.9996 49.385 100.318C49.546 100.637 49.8147 100.796 50.1965 100.796C50.5707 100.796 50.8383 100.633 50.999 100.309C51.1612 99.9844 51.2417 99.4387 51.2417 98.6719C51.2417 97.8989 51.1612 97.3533 50.999 97.0349C50.8383 96.7163 50.5707 96.5573 50.1965 96.5573C49.8178 96.5573 49.5489 96.7148 49.3882 97.03C49.226 97.3455 49.1454 97.8927 49.1454 98.6719ZM53.8278 100.201C53.8278 100.419 53.8664 100.561 53.9452 100.629C54.0243 100.697 54.2127 100.731 54.5077 100.731C54.548 100.731 54.5806 100.729 54.6053 100.728C54.6316 100.726 54.6533 100.725 54.672 100.722L54.6764 101.359C54.6316 101.361 54.5698 101.363 54.4939 101.366C54.307 101.376 54.1881 101.38 54.1354 101.38C53.7907 101.38 53.5341 101.312 53.3655 101.175C53.1971 101.039 53.1138 100.831 53.1138 100.555V96.6683H52.39V96.0654H53.1138V94.6741H53.8278V96.0654H54.6764V96.6683H53.8278V100.201ZM55.1371 99.7106H55.8607C55.8607 99.7168 55.8591 99.7261 55.856 99.7382C55.8466 99.8049 55.842 99.8542 55.842 99.8868C55.842 100.171 55.9225 100.388 56.0847 100.536C56.2471 100.684 56.4822 100.759 56.7897 100.759C57.0712 100.759 57.292 100.683 57.4545 100.531C57.6169 100.381 57.697 100.176 57.697 99.9163C57.697 99.5049 57.3818 99.1898 56.7494 98.9733L56.7356 98.9686C56.1003 98.7475 55.689 98.5295 55.502 98.3116C55.3151 98.0953 55.2207 97.7799 55.2207 97.3657C55.2207 96.9096 55.3551 96.5542 55.6227 96.2991C55.89 96.0439 56.2625 95.9172 56.7404 95.9172C57.2472 95.9172 57.629 96.0393 57.8872 96.2834C58.1437 96.5277 58.2722 96.8895 58.2722 97.3657V97.4382H57.5765C57.5609 97.1244 57.4899 96.8971 57.3632 96.7534C57.2379 96.6096 57.0399 96.5386 56.7712 96.5386C56.4883 96.5386 56.2749 96.6052 56.1311 96.7396C55.9874 96.8739 55.9164 97.0735 55.9164 97.3394C55.9164 97.4567 55.9347 97.5618 55.9735 97.6562C56.0107 97.7489 56.0663 97.8246 56.1375 97.8818C56.2704 97.9963 56.5346 98.1168 56.9303 98.2435C57.1421 98.3101 57.3044 98.3657 57.4203 98.4122C57.7789 98.5497 58.0355 98.7261 58.1902 98.9393C58.3433 99.151 58.4204 99.4324 58.4204 99.7833C58.4204 100.306 58.2704 100.708 57.9691 100.992C57.6692 101.275 57.241 101.417 56.6863 101.417C56.176 101.417 55.7896 101.283 55.5282 101.012C55.2669 100.742 55.1371 100.344 55.1371 99.8187V99.7106Z" fill="white"/>
<path d="M44.3784 118.27C44.5278 118.219 44.7398 117.963 44.6939 117.829L44.6888 117.814C44.6381 117.715 44.5482 117.695 44.4887 117.716C44.3841 117.752 44.3849 117.851 44.271 117.957C44.2306 117.887 44.2052 117.813 44.1695 117.709C43.7148 116.381 43.3664 112.251 43.3707 107.933L43.9921 107.703C44.0218 107.693 44.0465 107.668 44.0312 107.623L44.0261 107.608C44.0108 107.564 43.9708 107.544 43.926 107.559L43.8364 107.59C43.6873 107.641 43.5382 107.692 43.3942 107.758C43.3945 106.592 43.4705 101.899 44.191 100.986L44.383 101.303C44.5301 101.586 44.8133 101.489 44.8133 101.489C45.0222 101.418 45.0207 101.268 44.9697 101.119C44.9442 101.044 44.9238 100.984 44.8833 100.915C44.7313 100.617 44.4737 100.206 43.9218 100.395C43.6981 100.471 42.7802 101.052 42.8772 107.952C41.4959 108.542 40.0119 109.367 38.8222 110.174C38.9821 107.82 39.2882 105.648 38.9461 104.649C38.9257 104.589 38.9053 104.529 38.8696 104.475C38.6468 104.018 38.2326 104.026 37.9194 104.134C35.9955 104.793 33.6779 110.92 34.4849 113.276C34.5156 113.366 34.5462 113.455 34.5921 113.54C35.0127 114.379 36.0049 114.406 36.7657 114.145C37.3323 113.951 37.9372 113.527 37.7991 113.124L37.7788 113.065C37.6878 112.896 37.4979 112.828 37.3338 112.884C37.1994 112.93 37.1406 113.05 37.1514 113.18C37.0678 113.325 36.7802 113.506 36.4522 113.619C35.9598 113.788 35.3669 113.807 35.1543 113.38C35.1084 113.296 35.0828 113.221 35.0522 113.132C34.2553 110.805 36.6756 105.027 38.1073 104.536C38.3162 104.464 38.4013 104.519 38.4826 104.658L38.5133 104.747C38.8095 105.612 38.4897 108.572 38.3758 110.477C37.3403 111.248 37.3167 111.423 37.3525 111.527L37.3627 111.557C37.3828 111.567 37.4955 111.945 38.0922 111.741C38.1668 111.715 38.2415 111.69 38.3407 111.639C38.3073 113.05 38.3574 114.9 38.8634 116.376C38.9451 116.615 39.0416 116.848 39.1533 117.077C39.199 117.161 39.284 117.215 39.3886 117.18C39.4481 117.159 39.4726 117.084 39.4519 117.025L39.4418 116.995C39.3454 116.811 39.2741 116.602 39.2026 116.394C38.5997 114.634 38.6992 112.199 38.7899 110.518C39.9496 109.671 41.4633 108.786 42.8789 108.151C42.9466 112.144 43.3242 116.215 43.8353 117.707C43.8761 117.826 43.9169 117.945 43.9626 118.029C44.0082 118.114 44.14 118.352 44.3784 118.27ZM37.9106 111.503C37.8063 111.539 37.7066 111.539 37.6615 111.505C37.7647 111.32 38.1952 110.972 38.3636 110.831L38.3474 111.27C38.2831 111.325 38.0747 111.447 37.9106 111.503ZM49.0389 112.074C49.9187 111.773 50.6299 109.129 50.7408 108.675C50.7507 108.655 50.7457 108.64 50.7406 108.625C50.7253 108.58 50.6853 108.561 50.6405 108.576L50.5908 108.626C50.5327 108.846 49.7727 111.59 48.9674 111.865C48.8779 111.896 48.753 111.872 48.6099 111.454C48.3086 110.574 48.3132 108.74 48.3177 108.071C48.3276 108.052 48.3223 108.037 48.3121 108.007C48.2865 107.932 48.1916 107.898 48.117 107.924C48.0722 107.939 48.0177 107.974 48.0231 108.039C47.8074 109.063 47.2715 111.78 46.5756 112.035C46.5458 112.045 46.4956 112.045 46.4191 111.822C46.1943 111.165 46.3641 109.374 46.4296 108.835L46.4185 108.705C46.3621 108.541 46.1818 108.453 46.018 108.509C45.9134 108.545 45.8294 108.64 45.8107 108.78C45.7514 109.484 45.6554 111.1 45.9516 111.965C45.9925 112.084 46.2068 112.661 46.7286 112.482C47.5045 112.216 47.8985 110.399 48.0711 109.589C48.1111 110.192 48.1919 110.964 48.3707 111.486C48.519 111.919 48.7256 112.181 49.0389 112.074ZM51.2395 111.687C51.5527 111.58 51.3738 111.058 51.5858 109.535C51.7406 108.382 52.1224 106.918 53.201 106.516C53.2755 106.49 53.3149 106.41 53.2894 106.335C53.2537 106.231 53.1638 106.212 53.0743 106.242C51.8661 106.656 51.3803 108.206 51.1665 109.479C51.039 107.356 51.0727 107.211 51.0319 107.092C50.9809 106.943 50.8156 106.849 50.6367 106.911C50.5174 106.952 50.4288 107.082 50.4248 107.216C50.6825 110.645 50.8428 111.356 50.8939 111.505C50.9143 111.565 51.0309 111.759 51.2395 111.687ZM54.7745 110.476C55.0877 110.369 54.9088 109.847 55.1206 108.324C55.2756 107.171 55.6574 105.707 56.736 105.305C56.8105 105.279 56.85 105.199 56.8245 105.124C56.7888 105.02 56.6989 105.001 56.6093 105.031C55.4012 105.445 54.9153 106.995 54.7012 108.268C54.574 106.145 54.6078 106 54.567 105.881C54.516 105.732 54.3507 105.639 54.1718 105.7C54.0525 105.741 53.9638 105.871 53.9598 106.006C54.2175 109.434 54.3779 110.146 54.4289 110.295C54.4493 110.354 54.5659 110.548 54.7745 110.476ZM60.5668 115.125C61.5065 114.803 61.4101 109.803 61.1618 106.888C61.5725 105.898 62.2364 104.771 63.2353 104.428C63.2801 104.413 63.2997 104.373 63.2844 104.328C63.2742 104.299 63.2291 104.264 63.1843 104.279C62.2149 104.611 61.5891 105.509 61.1333 106.465C61.0995 105.976 60.9642 104.706 60.7445 104.065C60.7088 103.96 60.556 103.563 60.2428 103.67C59.5863 103.895 59.7952 107.473 58.8555 107.795C58.6021 107.882 58.4408 107.654 58.3541 107.4C58.1137 106.699 58.2024 105.352 58.3872 104.772C58.3966 104.703 58.4059 104.633 58.3853 104.573C58.324 104.394 58.134 104.326 57.9849 104.377C57.8953 104.408 57.8213 104.483 57.802 104.573C57.6123 105.138 57.4898 106.63 57.8067 107.555C58.1693 108.614 58.9301 108.353 59.0196 108.322C60.1382 107.939 60.139 105.606 60.3488 104.467C60.5546 105.213 60.6907 106.583 60.7567 107.36C59.8939 109.706 59.5449 113.359 59.9945 114.671C60.1169 115.029 60.2981 115.217 60.5668 115.125ZM60.4594 114.812C60.4146 114.827 60.3494 114.783 60.2779 114.574C59.9763 113.694 59.986 110.608 60.806 107.894C61.261 114.087 60.5487 114.781 60.4594 114.812ZM64.7439 105.378C64.8633 105.337 64.8675 105.253 64.8216 105.118C64.0707 102.926 65.2791 97.1123 65.8095 94.9141C65.8239 94.8591 65.8185 94.7942 65.8032 94.7496C65.7519 94.6003 65.5518 94.5022 65.4027 94.5532C65.3131 94.5841 65.2241 94.6645 65.215 94.7841C64.6776 97.3016 63.726 102.844 64.5234 105.22C64.5642 105.34 64.6098 105.424 64.7439 105.378ZM65.1912 110.041C65.2661 110.016 65.3052 109.936 65.2896 109.841C65.0342 109.095 65.0869 108.227 65.1932 107.857C65.2176 107.782 65.2122 107.718 65.1918 107.658C65.1306 107.479 65.0002 107.44 64.8064 107.457C64.687 107.498 64.6082 107.608 64.5841 107.733C64.5013 108.561 64.7468 109.327 64.8131 109.521C64.9307 109.864 65.0274 110.098 65.1912 110.041Z" fill="white"/>
<path d="M5.90515 12.887L6.49329 12.7458C6.93209 12.6406 7.24027 12.481 7.41797 12.2662C7.59377 12.053 7.68274 11.7386 7.68274 11.3231C7.68274 10.9044 7.60222 10.6337 7.43982 10.5101C7.27712 10.3868 6.96893 10.3803 6.51343 10.4894L5.90515 10.6354V12.887ZM4.54639 17.4644V9.90582L6.99084 9.31964C7.73634 9.14074 8.27228 9.17984 8.59888 9.43494C8.92568 9.68984 9.08984 10.1966 9.08984 10.9554C9.08984 11.7009 8.91554 12.2992 8.56714 12.7462C8.21874 13.1946 7.68578 13.5053 6.97058 13.6768L5.9436 13.923V17.1293L4.54639 17.4644ZM9.96436 16.1652V10.4863L11.2223 10.1848V11.106C11.4015 10.6793 11.5942 10.3599 11.7986 10.1467C12.003 9.93353 12.2524 9.79013 12.5475 9.71613V11.3143C12.4988 11.3191 12.4486 11.326 12.4001 11.3345C12.3514 11.3427 12.291 11.3557 12.219 11.3727C11.9375 11.4404 11.7148 11.5775 11.549 11.783C11.383 11.9905 11.3011 12.2344 11.3011 12.5159V15.8447L9.96436 16.1652ZM14.5309 11.5123L15.8125 11.205V10.9634C15.8125 10.5747 15.7654 10.3179 15.6699 10.1935C15.5743 10.069 15.4069 10.0357 15.1674 10.093C14.933 10.1494 14.767 10.2643 14.6698 10.4398C14.5709 10.6161 14.5208 10.8945 14.5208 11.2729C14.5208 11.2729 14.5225 11.2997 14.5259 11.3541C14.5293 11.4068 14.5309 11.4601 14.5309 11.5123ZM15.8558 12.8026L17.0906 12.5063C17.0906 12.5332 17.0923 12.5698 17.0957 12.6174C17.0988 12.6667 17.0989 12.702 17.0989 12.7255C17.0989 13.3738 16.9449 13.885 16.6365 14.2621C16.3267 14.6396 15.8374 14.9078 15.1656 15.0688C14.8138 15.153 14.5173 15.1806 14.2778 15.1494C14.04 15.1176 13.8441 15.0272 13.6899 14.8781C13.5056 14.7029 13.3767 14.4575 13.3013 14.1422C13.2259 13.827 13.189 13.2359 13.189 12.3682C13.189 11.678 13.2224 11.1757 13.2876 10.8633C13.3531 10.5498 13.4637 10.2806 13.6213 10.0516C13.7837 9.81657 13.998 9.61782 14.2611 9.45422C14.5241 9.29232 14.8373 9.16713 15.201 9.07983C15.5511 8.99583 15.8524 8.97717 16.1056 9.02197C16.3601 9.06787 16.5697 9.17873 16.7372 9.35443C16.8778 9.51033 16.9783 9.72387 17.0387 9.99597C17.0988 10.2679 17.1293 10.7231 17.1293 11.3615V11.7936L14.5459 12.413C14.5391 12.4567 14.5358 12.5026 14.5341 12.5499C14.5327 12.5987 14.5309 12.6747 14.5309 12.7802C14.5309 13.3196 14.5811 13.6843 14.6814 13.8763C14.7821 14.0684 14.9513 14.1351 15.1908 14.0778C15.4252 14.0214 15.5928 13.8941 15.6985 13.6929C15.804 13.4919 15.8558 13.1963 15.8558 12.8026ZM20.7172 13.5869V6.02832L22.1246 5.69067V11.9626L24.6676 11.353V12.6395L20.7172 13.5869ZM27.8771 8.89465C27.383 9.26295 27.0479 9.56597 26.8735 9.80377C26.6978 10.0422 26.6108 10.2955 26.6108 10.5637C26.6108 10.8148 26.6576 10.9897 26.7515 11.0861C26.8436 11.1828 26.9909 11.2081 27.1902 11.1602C27.4198 11.1052 27.5907 10.9634 27.7046 10.7369C27.8203 10.5098 27.8771 10.1964 27.8771 9.79785V8.89465ZM28.0581 11.8265C28.0295 11.7914 28.0046 11.7321 27.9827 11.6536C27.9609 11.5734 27.9391 11.4577 27.9155 11.3112C27.7801 11.5714 27.6023 11.7883 27.3846 11.9598C27.1669 12.1307 26.9121 12.252 26.6224 12.3215C26.1901 12.4252 25.855 12.3598 25.6138 12.126C25.3743 11.8938 25.2538 11.5174 25.2538 11.0015C25.2538 10.534 25.3593 10.1369 25.5704 9.80975C25.7796 9.48315 26.1987 9.10474 26.8218 8.67694C26.8838 8.63194 26.9725 8.57216 27.0864 8.49646C27.6006 8.15376 27.8572 7.83392 27.8572 7.53912C27.8572 7.36002 27.8084 7.23248 27.7081 7.16138C27.6091 7.08788 27.4652 7.07342 27.2759 7.11902C27.038 7.17602 26.862 7.28202 26.7498 7.43622C26.6375 7.59212 26.5804 7.80536 26.5804 8.07666V8.19055L25.3041 8.49677C25.3041 7.85837 25.4599 7.35697 25.7731 6.99207C26.0846 6.62557 26.5856 6.35966 27.2759 6.19446C27.9661 6.02886 28.4486 6.04723 28.7266 6.24683C29.0047 6.44643 29.1436 6.87895 29.1436 7.54565V10.7505C29.1436 10.9078 29.1586 11.0485 29.1873 11.1707C29.2173 11.2923 29.266 11.4095 29.3346 11.5204L28.0581 11.8265ZM33.9766 4.72833V10.4072L32.6902 10.7156V10.1528C32.5544 10.4201 32.3869 10.6377 32.1859 10.8066C31.985 10.9753 31.7537 11.0913 31.4957 11.1531C31.0818 11.2523 30.7686 11.2101 30.5526 11.0292C30.3363 10.8481 30.2275 10.5342 30.2275 10.09V5.62744L31.494 5.32367V9.03583C31.494 9.41283 31.536 9.66098 31.6213 9.78278C31.7069 9.90438 31.8509 9.94187 32.0553 9.89307C32.2781 9.83947 32.4337 9.72357 32.5244 9.54437C32.6148 9.36697 32.6599 9.07462 32.6599 8.67242V5.04413L33.9766 4.72833ZM35.1107 10.1354V4.45642L36.3975 4.14783V4.72406C36.535 4.45166 36.7038 4.23004 36.9034 4.05994C37.1026 3.88984 37.3305 3.77334 37.5851 3.71234C37.9972 3.61344 38.3122 3.65517 38.5316 3.83887C38.751 4.02227 38.8599 4.33466 38.8599 4.77686V9.23627L37.5936 9.54016V5.73407C37.5936 5.40077 37.5517 5.17454 37.4661 5.05914C37.3808 4.94404 37.2384 4.91116 37.0406 4.95856C36.8213 5.01126 36.6639 5.13254 36.5701 5.32074C36.4746 5.51124 36.4274 5.80575 36.4274 6.20465V9.81964L35.1107 10.1354ZM43.5625 5.87726C43.5656 5.91526 43.569 5.95635 43.5707 6.00085C43.5724 6.04415 43.5724 6.10935 43.5724 6.19495C43.5724 6.89855 43.4233 7.45356 43.1234 7.86066C42.8235 8.26906 42.3595 8.54805 41.7313 8.69855C41.0193 8.86945 40.5201 8.77792 40.2372 8.42352C39.954 8.06952 39.8131 7.31924 39.8131 6.17004C39.8131 5.02564 39.954 4.20816 40.2372 3.71436C40.5201 3.22116 41.0193 2.88892 41.7313 2.71802C42.3561 2.56832 42.8187 2.61285 43.1152 2.85205C43.4134 3.09185 43.5625 3.53696 43.5625 4.18866V4.38953L42.3059 4.69092V4.56366C42.3059 4.21866 42.2625 3.98287 42.1735 3.85327C42.0865 3.72347 41.9425 3.68262 41.7429 3.73022C41.5403 3.77903 41.3946 3.88752 41.3041 4.05682C41.2154 4.22542 41.1702 4.48257 41.1702 4.82617V6.78094C41.1702 7.17124 41.2121 7.43286 41.2974 7.56616C41.383 7.69986 41.5269 7.74245 41.733 7.69305C41.9558 7.63955 42.11 7.51395 42.1971 7.31525C42.2824 7.11905 42.326 6.77698 42.326 6.29108V6.16864L43.5625 5.87726ZM44.5491 7.87225V0.31366L45.8557 0.00012207V2.41925C45.9697 2.17235 46.1287 1.96514 46.3314 1.79584C46.5341 1.62694 46.7654 1.51102 47.0233 1.44922C47.4355 1.35022 47.7505 1.39198 47.9698 1.57397C48.1892 1.75737 48.2981 2.06805 48.2981 2.51025V6.97302L47.0319 7.27667V3.46558C47.0319 3.10868 46.9934 2.88015 46.9163 2.77985C46.8392 2.67945 46.7067 2.65087 46.5173 2.69617C46.2795 2.75317 46.1086 2.87275 46.0082 3.05585C45.9059 3.23985 45.8557 3.53327 45.8557 3.94037V7.55878L44.5491 7.87225Z" fill="white"/>
</svg>
