<svg width="187" height="267" viewBox="0 0 187 267" fill="none" xmlns="http://www.w3.org/2000/svg">
<path fill-rule="evenodd" clip-rule="evenodd" d="M0 47.1104L187 1.69604V188.696L0 234.11V47.1104Z" fill="#05B9BE"/>
<path fill-rule="evenodd" clip-rule="evenodd" d="M173.337 91.7776L13.6636 53V212.673L173.337 251.45V91.7776Z" fill="#FFD349"/>
<path fill-rule="evenodd" clip-rule="evenodd" d="M159.673 227.899L0 266.677V250.717L159.673 227.899Z" fill="#05B9BE"/>
<path d="M25.9512 134.048H37.2132V134.082C36.5487 135.454 36.1715 136.19 36.0816 136.29H33.0824C33.4973 136.943 33.7757 137.729 33.9217 138.655H37.1286C37.1663 138.666 37.1853 138.688 37.1853 138.721C36.4684 140.16 36.0959 140.885 36.0816 140.896H34.0063C33.9594 141.627 33.7001 142.519 33.2192 143.573C32.5632 144.632 31.9506 145.319 31.37 145.631C30.2807 146.328 29.2388 146.679 28.244 146.679V146.713C28.244 146.807 28.4891 147.237 28.9796 148.001L34.5301 157.001V157.43C34.5301 157.469 34.5112 157.491 34.4781 157.491H32.0301C27.63 150.621 25.4278 147.17 25.4278 147.136V145.045L25.4565 144.961C25.8429 145.04 26.2957 145.079 26.8241 145.079C29.281 145.079 30.8138 144.002 31.4222 141.861C31.516 141.543 31.5584 141.22 31.5584 140.896H24.8759C24.8389 140.896 24.8193 140.868 24.8193 140.813C25.5549 139.374 25.9328 138.655 25.9512 138.655H31.271V138.627C30.9598 137.796 30.3707 137.155 29.5027 136.698C28.8759 136.424 28.3143 136.29 27.8192 136.29H24.8481V136.206C25.5648 134.768 25.9328 134.048 25.9512 134.048ZM40.0365 144.333H46.9671C47.0257 146.829 47.2615 148.613 47.6663 149.683C48.078 150.745 48.7257 151.275 49.6157 151.275C50.5057 151.275 51.1755 150.797 51.6315 149.831C52.0804 148.874 52.3087 147.456 52.3087 145.586C52.3087 143.593 51.904 142.167 51.0949 141.305C50.2785 140.436 48.9388 140 47.0772 140C46.7756 140 46.5476 140 46.3931 140.01C46.2465 140.018 46.1065 140.036 45.9741 140.053L45.9521 133.893H46.6656C48.4826 133.893 49.7922 133.476 50.587 132.632C51.3814 131.788 51.7788 130.397 51.7788 128.456C51.7788 127.178 51.5953 126.194 51.2199 125.49C50.8517 124.794 50.315 124.446 49.6086 124.446C48.755 124.446 48.1437 124.846 47.7764 125.655C47.4082 126.464 47.2023 127.96 47.1437 130.135H40.3458V129.622C40.3458 125.916 41.2066 123.028 42.9209 120.94C44.6352 118.86 47.0043 117.817 50.0203 117.817C52.7503 117.817 54.9722 118.748 56.7014 120.609C58.4228 122.471 59.2835 124.863 59.2835 127.786C59.2835 129.727 58.8939 131.423 58.1133 132.867C57.327 134.311 56.149 135.546 54.5676 136.564C56.4512 137.434 57.8345 138.635 58.7316 140.184C59.6297 141.723 60.0779 143.689 60.0779 146.064C60.0779 149.848 59.1807 152.806 57.3848 154.929C55.5905 157.052 53.0886 158.113 49.881 158.113C46.754 158.113 44.3184 157.008 42.5892 154.799C40.86 152.598 39.9921 149.483 39.9921 145.481C39.9921 145.359 39.9993 145.168 40.0144 144.907C40.0287 144.646 40.0365 144.454 40.0365 144.333ZM63.9703 157.33V148.352H71.5635V155.442C71.5635 158.853 70.9823 161.34 69.8121 162.889C68.6426 164.446 66.7074 165.325 64.0146 165.525V162.341C65.3464 162.21 66.3536 161.714 67.0462 160.871C67.7298 160.018 68.0757 158.843 68.0757 157.33H63.9703ZM87.595 142.523C86.7714 143.132 85.9545 143.593 85.1452 143.889C84.3283 144.185 83.497 144.333 82.6511 144.333C80.2084 144.333 78.3911 143.324 77.1917 141.297C75.9999 139.279 75.4037 136.198 75.4037 132.066C75.4037 127.273 76.2131 123.698 77.8315 121.349C79.4506 118.991 81.9077 117.817 85.2187 117.817C86.8151 117.817 88.2284 118.087 89.4566 118.635C90.6854 119.174 91.7449 120 92.6349 121.105C93.5987 122.332 94.2833 124.02 94.6729 126.177C95.0703 128.334 95.2692 132.128 95.2692 137.547C95.2692 142.289 95.1655 145.673 94.9602 147.7C94.7467 149.735 94.4013 151.379 93.9081 152.632C93.2233 154.398 92.1124 155.755 90.5903 156.695C89.067 157.643 87.2127 158.113 85.0279 158.113C82.1136 158.113 79.8553 157.234 78.2511 155.468C76.6476 153.702 75.8448 151.188 75.8448 147.934L82.9085 147.96C82.9384 149.178 83.1364 150.092 83.5118 150.71C83.8869 151.327 84.4318 151.64 85.1531 151.64C86.0576 151.64 86.6972 151.171 87.0726 150.231C87.4479 149.283 87.6322 147.63 87.6322 145.272C87.6322 144.559 87.6323 144.002 87.6252 143.602C87.6174 143.202 87.6102 142.845 87.595 142.523ZM87.7643 131.023C87.7643 128.665 87.5658 126.995 87.1684 126.012C86.7788 125.037 86.1017 124.55 85.1531 124.55C84.321 124.55 83.725 125.029 83.3795 125.995C83.0336 126.951 82.8641 128.682 82.8641 131.179C82.8641 133.572 83.0485 135.259 83.4238 136.242C83.7992 137.217 84.4388 137.704 85.344 137.704C86.2561 137.704 86.8818 137.251 87.2349 136.355C87.5879 135.451 87.7643 133.676 87.7643 131.023ZM111.264 142.523C110.44 143.132 109.624 143.593 108.814 143.889C107.997 144.185 107.166 144.333 106.32 144.333C103.877 144.333 102.06 143.324 100.861 141.297C99.6692 139.279 99.0731 136.198 99.0731 132.066C99.0731 127.273 99.8821 123.698 101.501 121.349C103.12 118.991 105.577 117.817 108.888 117.817C110.484 117.817 111.897 118.087 113.126 118.635C114.355 119.174 115.414 120 116.304 121.105C117.268 122.332 117.952 124.02 118.342 126.177C118.74 128.334 118.938 132.128 118.938 137.547C118.938 142.289 118.835 145.673 118.629 147.7C118.416 149.735 118.07 151.379 117.577 152.632C116.892 154.398 115.781 155.755 114.259 156.695C112.736 157.643 110.882 158.113 108.696 158.113C105.783 158.113 103.524 157.234 101.92 155.468C100.317 153.702 99.5141 151.188 99.5141 147.934L106.578 147.96C106.607 149.178 106.806 150.092 107.181 150.71C107.556 151.327 108.1 151.64 108.822 151.64C109.727 151.64 110.366 151.171 110.742 150.231C111.117 149.283 111.301 147.63 111.301 145.272C111.301 144.559 111.301 144.002 111.294 143.602C111.286 143.202 111.279 142.845 111.264 142.523ZM111.433 131.023C111.433 128.665 111.235 126.995 110.838 126.012C110.447 125.037 109.771 124.55 108.822 124.55C107.99 124.55 107.394 125.029 107.049 125.995C106.703 126.951 106.533 128.682 106.533 131.179C106.533 133.572 106.718 135.259 107.093 136.242C107.468 137.217 108.108 137.704 109.013 137.704C109.925 137.704 110.551 137.251 110.904 136.355C111.257 135.451 111.433 133.676 111.433 131.023ZM134.934 142.523C134.109 143.132 133.293 143.593 132.483 143.889C131.667 144.185 130.835 144.333 129.989 144.333C127.546 144.333 125.729 143.324 124.53 141.297C123.338 139.279 122.742 136.198 122.742 132.066C122.742 127.273 123.551 123.698 125.17 121.349C126.789 118.991 129.246 117.817 132.557 117.817C134.154 117.817 135.566 118.087 136.794 118.635C138.023 119.174 139.083 120 139.973 121.105C140.937 122.332 141.621 124.02 142.011 126.177C142.409 128.334 142.607 132.128 142.607 137.547C142.607 142.289 142.504 145.673 142.299 147.7C142.084 149.735 141.739 151.379 141.246 152.632C140.562 154.398 139.451 155.755 137.928 156.695C136.405 157.643 134.551 158.113 132.366 158.113C129.452 158.113 127.193 157.234 125.589 155.468C123.985 153.702 123.183 151.188 123.183 147.934L130.247 147.96C130.276 149.178 130.475 150.092 130.85 150.71C131.226 151.327 131.77 151.64 132.491 151.64C133.396 151.64 134.036 151.171 134.411 150.231C134.786 149.283 134.97 147.63 134.97 145.272C134.97 144.559 134.97 144.002 134.963 143.602C134.955 143.202 134.948 142.845 134.934 142.523ZM135.102 131.023C135.102 128.665 134.904 126.995 134.507 126.012C134.116 125.037 133.44 124.55 132.491 124.55C131.66 124.55 131.063 125.029 130.718 125.995C130.372 126.951 130.202 128.682 130.202 131.179C130.202 133.572 130.386 135.259 130.762 136.242C131.137 137.217 131.777 137.704 132.682 137.704C133.594 137.704 134.219 137.251 134.572 136.355C134.926 135.451 135.102 133.676 135.102 131.023ZM146.043 160.442H143.699L150.433 131.567H152.782L146.043 160.442ZM153.547 150.404V145.352H162.177V150.404H153.547Z" fill="#102694"/>
<path d="M80.4045 176.765H83.4513V177.816C83.4513 178.819 83.5783 179.507 83.8279 179.87C84.078 180.236 84.5127 180.417 85.1285 180.417C85.7734 180.417 86.2628 180.254 86.5996 179.928C86.9365 179.602 87.1032 179.12 87.1032 178.486C87.1032 177.997 86.9873 177.577 86.7522 177.225C86.5201 176.878 86.0125 176.424 85.234 175.873L83.676 174.768C82.3279 173.834 81.4731 173.062 81.107 172.453C80.7415 171.845 80.5604 171.081 80.5604 170.16C80.5604 168.787 80.9656 167.711 81.7814 166.932C82.5964 166.153 83.7191 165.765 85.1467 165.765C86.6649 165.765 87.824 166.178 88.632 167.008C89.4397 167.835 89.8424 169.022 89.8424 170.573C89.8424 170.729 89.8424 170.849 89.8385 170.932C89.8353 171.019 89.8274 171.091 89.8203 171.157H86.9294V170.722C86.9294 169.834 86.7846 169.2 86.4948 168.816C86.2047 168.436 85.7266 168.244 85.0632 168.244C84.5746 168.244 84.1942 168.388 83.9153 168.675C83.6363 168.961 83.4949 169.36 83.4949 169.871C83.4949 170.559 84.1217 171.32 85.3714 172.156L85.4041 172.175L87.0819 173.312C88.2774 174.106 89.0852 174.852 89.5088 175.559C89.9329 176.261 90.1467 177.156 90.1467 178.246C90.1467 179.732 89.7227 180.881 88.871 181.685C88.0233 182.493 86.8101 182.895 85.234 182.895C83.5926 182.895 82.3716 182.471 81.5675 181.623C80.767 180.776 80.3643 179.479 80.3643 177.74C80.3643 177.558 80.3792 177.254 80.4045 176.83V176.765ZM96.3162 172.244C95.8165 172.244 95.4721 172.49 95.2875 172.982C95.1024 173.472 95.0118 174.671 95.0118 176.573C95.0118 178.236 95.1063 179.298 95.2948 179.754C95.4791 180.21 95.8237 180.439 96.3162 180.439C96.8812 180.439 97.2691 180.171 97.4794 179.638C97.6893 179.102 97.7909 177.751 97.7909 175.576C97.7909 174.218 97.6893 173.323 97.4794 172.892C97.2691 172.461 96.8812 172.244 96.3162 172.244ZM97.7074 181.464C97.4755 181.924 97.1608 182.264 96.762 182.493C96.3671 182.718 95.8779 182.83 95.298 182.83C94.1278 182.83 93.3054 182.362 92.8312 181.424C92.3561 180.486 92.1209 178.779 92.1209 176.305C92.1209 173.914 92.3634 172.247 92.8526 171.305C93.3419 170.366 94.1786 169.895 95.3599 169.895C95.9612 169.895 96.4721 170.03 96.8891 170.298C97.3053 170.57 97.6313 170.972 97.8672 171.508V170.222H100.555V186.634H97.7074V181.464ZM103.139 182.504V179.569H105.877V182.504H103.139ZM114.529 186.529V184.406C114.587 184.406 114.645 184.409 114.71 184.413C114.773 184.417 114.866 184.417 114.986 184.417C115.388 184.417 115.681 184.352 115.866 184.221C116.051 184.09 116.142 183.876 116.142 183.587C116.142 183.497 116.131 183.384 116.109 183.257C116.087 183.131 116.062 183.007 116.026 182.887L112.878 170.222H115.877L117.573 179.084L119.218 170.222H122.095L118.903 183.663C118.616 184.83 118.239 185.612 117.772 186.014C117.301 186.413 116.551 186.612 115.526 186.612C115.37 186.612 115.211 186.605 115.044 186.59C114.877 186.576 114.707 186.555 114.529 186.529ZM123.569 182.504V170.222H126.29V172.214C126.678 171.385 127.094 170.794 127.536 170.439C127.978 170.084 128.518 169.903 129.156 169.895V173.352C129.051 173.338 128.942 173.327 128.837 173.319C128.732 173.312 128.602 173.308 128.446 173.308C127.837 173.308 127.355 173.489 126.996 173.848C126.638 174.211 126.46 174.696 126.46 175.305V182.504H123.569ZM133.434 176.178C133.434 178.073 133.525 179.265 133.71 179.75C133.894 180.239 134.239 180.482 134.739 180.482C135.304 180.482 135.691 180.265 135.902 179.83C136.112 179.395 136.213 178.504 136.213 177.152C136.213 174.982 136.112 173.631 135.902 173.091C135.691 172.555 135.304 172.287 134.739 172.287C134.246 172.287 133.902 172.519 133.717 172.982C133.529 173.442 133.434 174.512 133.434 176.178ZM136.29 181.218C136.054 181.747 135.728 182.149 135.311 182.42C134.894 182.692 134.384 182.83 133.782 182.83C132.601 182.83 131.764 182.359 131.275 181.417C130.786 180.479 130.543 178.812 130.543 176.421C130.543 173.946 130.779 172.24 131.254 171.302C131.728 170.363 132.55 169.895 133.72 169.895C134.3 169.895 134.789 170.008 135.184 170.236C135.583 170.461 135.898 170.805 136.13 171.265V166.157H138.978V182.504H136.29V181.218Z" fill="#102694"/>
<path d="M12.9453 34.7653C12.9453 32.8375 13.2358 31.1479 13.8123 29.6996C14.2392 28.6342 14.8294 27.627 15.573 26.6834C16.317 25.7413 17.1314 24.9796 18.0163 24.3951C19.1962 23.6171 20.5561 23.0424 22.097 22.6763C24.8877 22.0131 27.1152 22.3507 28.7925 23.6824C30.4649 25.0188 31.3016 27.2281 31.3016 30.3139C31.3016 33.3731 30.4695 35.9657 28.8099 38.0859C27.1506 40.2104 24.9275 41.6015 22.1499 42.2617C19.3369 42.9301 17.0962 42.605 15.4366 41.2778C13.7771 39.9557 12.9453 37.7847 12.9453 34.7653ZM16.8807 33.702C16.8807 35.8456 17.3778 37.3521 18.368 38.2257C19.3592 39.0948 20.6179 39.3509 22.1407 38.9887C23.6685 38.6259 24.9183 37.7783 25.9002 36.4491C26.8776 35.1159 27.3661 33.3536 27.3661 31.1571C27.3661 28.9868 26.8906 27.4796 25.9353 26.6418C24.9846 25.798 23.7214 25.5661 22.1407 25.9414C20.5652 26.3161 19.2927 27.1597 18.3289 28.4675C17.3647 29.7798 16.8807 31.5232 16.8807 33.702ZM32.6614 25.7121L34.6729 25.2337V24.1991C34.6729 23.0457 34.7966 22.1538 35.043 21.527C35.2845 20.8976 35.738 20.3274 36.3943 19.8146C37.0542 19.3013 37.8862 18.9235 38.8902 18.6842C39.9243 18.4387 40.9323 18.3531 41.9232 18.4262L41.4346 21.0598C40.8581 21.0612 40.3029 21.1225 39.7705 21.2489C39.2421 21.3746 38.8682 21.5864 38.6395 21.8872C38.4101 22.1884 38.3 22.6901 38.3 23.3944V24.3717L42.8256 23.2961V22.2614C42.8256 21.108 42.9488 20.2162 43.1906 19.5898C43.4375 18.9593 43.8903 18.3898 44.5465 17.877C45.2025 17.3642 46.0346 16.9862 47.0425 16.7465C48.0727 16.5015 49.0853 16.4155 50.0711 16.4891L49.5825 19.1235C49.0058 19.1242 48.4514 19.1852 47.9183 19.3123C47.3945 19.4367 47.0205 19.6486 46.7918 19.9495C46.5624 20.2499 46.4483 20.7529 46.4483 21.4574V22.4347L49.1556 21.7909V24.6434L46.4483 25.2872V36.1421L42.8256 37.0034V26.1485L38.3 27.2243V38.0791L34.6729 38.9411V28.0862L32.6614 28.5645V25.7121ZM59.1258 28.7971L62.7445 28.5436C62.282 29.979 61.5469 31.1617 60.5482 32.0954C59.5442 33.0244 58.2898 33.6707 56.7886 34.0272C54.4071 34.5933 52.6421 34.2337 51.502 32.9469C50.5996 31.911 50.146 30.4429 50.146 28.5371C50.146 26.2657 50.7402 24.3419 51.9247 22.7747C53.1087 21.2032 54.6098 20.2038 56.4232 19.773C58.4567 19.2896 60.0634 19.5815 61.2432 20.6473C62.4187 21.7146 62.9824 23.6459 62.9295 26.4405L53.8704 28.5937C53.8964 29.6616 54.187 30.4293 54.746 30.895C55.3006 31.3609 55.9964 31.4951 56.8238 31.2991C57.392 31.1635 57.8669 30.8964 58.2501 30.4969C58.6371 30.0969 58.9276 29.5308 59.1258 28.7971ZM59.3375 25.0753C59.3108 24.0296 59.0423 23.2921 58.5277 22.8692C58.0121 22.4412 57.3875 22.3165 56.648 22.4926C55.8596 22.6795 55.2087 23.1252 54.6934 23.8244C54.1785 24.5234 53.9277 25.3704 53.9362 26.3595L59.3375 25.0753ZM69.3521 30.6978L65.7333 31.5578V17.8503L69.0875 17.0526V18.9983C69.664 17.9415 70.1839 17.2142 70.6459 16.8189C71.1079 16.4226 71.6318 16.1576 72.2175 16.0181C73.0449 15.8213 73.8418 15.861 74.6075 16.132L73.4856 19.5599C72.8737 19.3092 72.3056 19.2459 71.7817 19.3703C71.271 19.4921 70.8396 19.7353 70.4877 20.0961C70.1353 20.4616 69.8583 21.0292 69.6556 21.8084C69.4531 22.5872 69.3521 24.1431 69.3521 26.4717V30.6978ZM83.5345 27.3258V8.41494L89.6578 6.95954C91.9775 6.40834 93.487 6.14164 94.1915 6.16394C95.2744 6.19267 96.1813 6.59336 96.9122 7.37074C97.6427 8.14719 98.0082 9.2888 98.0082 10.7946C98.0082 11.9563 97.7972 12.9791 97.3788 13.8705C96.9559 14.7637 96.4236 15.5113 95.7765 16.1185C95.129 16.7212 94.4689 17.1773 93.7998 17.4816C92.8889 17.8791 91.5728 18.2842 89.8468 18.694L87.3643 19.2844V26.4156L83.5345 27.3258ZM87.3643 10.7006V16.0884L89.4461 15.594C90.9473 15.2368 91.9466 14.898 92.453 14.5801C92.9592 14.2615 93.3555 13.8588 93.6414 13.3642C93.9276 12.8737 94.0728 12.3505 94.0728 11.7869C94.0728 11.0962 93.8701 10.5762 93.4694 10.2225C93.0649 9.86918 92.5586 9.70835 91.9377 9.74168C91.4842 9.76582 90.5733 9.93775 89.1999 10.2648L87.3643 10.7006ZM104.585 22.3219L100.966 23.1827V9.47499L104.321 8.6777V10.6231C104.897 9.56557 105.417 8.83926 105.879 8.44299C106.341 8.04764 106.865 7.78228 107.451 7.64276C108.278 7.44601 109.075 7.48513 109.84 7.75682L108.719 11.1842C108.107 10.9339 107.539 10.8708 107.015 10.9953C106.504 11.1165 106.072 11.3601 105.721 11.7209C105.368 12.0866 105.091 12.6541 104.889 13.4333C104.686 14.2119 104.585 15.7673 104.585 18.096V22.3219ZM111.404 5.14471V1.79073L115.022 0.930595V4.28485L111.404 5.14471ZM111.404 20.7014V6.99391L115.022 6.13377V19.8415L111.404 20.7014ZM130.679 6.47861L127.114 7.96025C126.995 7.2801 126.722 6.81211 126.295 6.55283C125.868 6.29746 125.318 6.2479 124.64 6.40903C123.738 6.62394 123.016 7.10726 122.478 7.8605C121.941 8.61304 121.673 9.71998 121.673 11.186C121.673 12.815 121.946 13.8985 122.492 14.4426C123.037 14.986 123.768 15.1477 124.684 14.93C125.37 14.7666 125.934 14.4342 126.37 13.9391C126.81 13.4426 127.118 12.6957 127.299 11.6936L130.864 11.4531C130.494 13.1786 129.786 14.584 128.738 15.67C127.691 16.755 126.286 17.5068 124.521 17.9265C122.522 18.4014 120.925 18.1475 119.736 17.1667C118.543 16.1822 117.949 14.5723 117.949 12.3316C117.949 10.0641 118.547 8.16098 119.74 6.61428C120.933 5.06735 122.549 4.05344 124.587 3.56936C126.251 3.17401 127.576 3.21954 128.562 3.70292C129.544 4.18654 130.248 5.11097 130.679 6.47861ZM141.354 9.25038L144.973 8.99687C144.51 10.4323 143.775 11.6147 142.776 12.5484C141.772 13.4777 140.518 14.1241 139.017 14.4804C136.635 15.0467 134.87 14.6869 133.73 13.4C132.828 12.364 132.374 10.8962 132.374 8.99028C132.374 6.71907 132.968 4.79496 134.153 3.22803C135.337 1.65651 136.838 0.656845 138.651 0.226326C140.685 -0.25729 142.291 0.0345612 143.471 1.10063C144.647 2.16785 145.21 4.09916 145.158 6.89374L136.098 9.04695C136.124 10.1149 136.415 10.8824 136.974 11.3483C137.529 11.8142 138.224 11.9486 139.052 11.7518C139.62 11.6169 140.095 11.3497 140.478 10.9502C140.865 10.5502 141.156 9.98385 141.354 9.25038ZM141.566 5.52855C141.539 4.48271 141.27 3.74538 140.756 3.32245C140.24 2.89445 139.615 2.76992 138.876 2.94576C138.088 3.13286 137.437 3.57857 136.921 4.27756C136.406 4.97678 136.156 5.82372 136.164 6.81279L141.566 5.52855Z" fill="#2C2E35"/>
<path d="M61.6327 92.0816H67.1392V92.0986C66.8139 92.769 66.6295 93.1287 66.5859 93.1781H65.1187C65.3226 93.4967 65.4583 93.8813 65.5297 94.3341H67.0974C67.1158 94.3392 67.1254 94.3504 67.1254 94.3665C66.7749 95.0697 66.5925 95.4241 66.5859 95.4301H65.5716C65.5481 95.7871 65.4217 96.2229 65.1863 96.7385C64.8652 97.2563 64.5655 97.5918 64.2821 97.7442C63.7498 98.0851 63.2396 98.257 62.7535 98.257V98.2734C62.7535 98.3196 62.8732 98.5295 63.1132 98.9035L65.8269 103.303V103.513C65.8269 103.533 65.8177 103.543 65.8014 103.543H64.6045C62.4538 100.184 61.3767 98.4968 61.3767 98.4805V97.4583L61.3906 97.4172C61.5795 97.4556 61.801 97.4746 62.0596 97.4746C63.2611 97.4746 64.0104 96.9481 64.3081 95.9018C64.3538 95.7459 64.3747 95.5878 64.3747 95.4301H61.107C61.0886 95.4301 61.0791 95.4162 61.0791 95.3888C61.4393 94.6853 61.6237 94.3341 61.6327 94.3341H64.2339V94.3204C64.0815 93.9138 63.7935 93.6005 63.3687 93.377C63.0625 93.2435 62.788 93.1781 62.5461 93.1781H61.0933V93.137C61.4438 92.4334 61.6237 92.0816 61.6327 92.0816ZM74.0229 96.4718V88.7854L71.0731 96.4718H74.0229ZM73.613 103.464V99.7636H68.2597V96.1396L73.3824 84.502H77.0878V96.4718H78.4906V99.7636H77.0878V103.464H73.613ZM80.2212 103.464V99.0749H83.9331V102.541C83.9331 104.208 83.6497 105.425 83.0776 106.182C82.5055 106.944 81.5594 107.373 80.2425 107.472V105.914C80.8935 105.85 81.3861 105.608 81.7249 105.195C82.0591 104.778 82.2285 104.205 82.2285 103.464H80.2212ZM91.7721 96.2248C91.3694 96.5225 90.9692 96.7481 90.5738 96.8926C90.1743 97.0375 89.7684 97.1097 89.3547 97.1097C88.1597 97.1097 87.2718 96.6163 86.6852 95.6254C86.1021 94.6381 85.8115 93.1327 85.8115 91.112C85.8115 88.7684 86.2071 87.0204 86.998 85.8722C87.7897 84.719 88.9904 84.1451 90.6097 84.1451C91.3908 84.1451 92.0807 84.2766 92.6816 84.5451C93.2829 84.8082 93.8011 85.2129 94.2362 85.7528C94.7074 86.3523 95.0416 87.178 95.2324 88.2328C95.4266 89.2876 95.5236 91.1421 95.5236 93.7919C95.5236 96.1102 95.4734 97.7645 95.3725 98.7556C95.2682 99.7511 95.0988 100.555 94.8584 101.168C94.5235 102.031 93.9808 102.694 93.236 103.153C92.4913 103.618 91.5843 103.847 90.5157 103.847C89.0916 103.847 87.9871 103.417 87.2033 102.554C86.4188 101.691 86.0267 100.461 86.0267 98.8708L89.4798 98.8831C89.4943 99.4787 89.5919 99.9258 89.7756 100.227C89.9588 100.53 90.2251 100.683 90.5771 100.683C91.0195 100.683 91.3328 100.453 91.516 99.9934C91.6997 99.5295 91.7896 98.7216 91.7896 97.5691C91.7896 97.2204 91.7896 96.948 91.7864 96.7526C91.7825 96.5566 91.7792 96.3825 91.7721 96.2248ZM91.8548 90.6019C91.8548 89.4492 91.7576 88.6323 91.5629 88.1521C91.3726 87.6752 91.0416 87.4373 90.5771 87.4373C90.1711 87.4373 89.88 87.6712 89.7106 88.1436C89.5412 88.6113 89.4584 89.4577 89.4584 90.6782C89.4584 91.8484 89.5483 92.6731 89.7319 93.154C89.9158 93.6302 90.2284 93.8682 90.6709 93.8682C91.1173 93.8682 91.4234 93.6473 91.5953 93.2094C91.7682 92.7669 91.8548 91.8992 91.8548 90.6019ZM103.344 96.2248C102.942 96.5225 102.542 96.7481 102.146 96.8926C101.747 97.0375 101.341 97.1097 100.927 97.1097C99.732 97.1097 98.844 96.6163 98.2577 95.6254C97.6745 94.6381 97.3838 93.1327 97.3838 91.112C97.3838 88.7684 97.7795 87.0204 98.5711 85.8722C99.362 84.719 100.563 84.1451 102.182 84.1451C102.963 84.1451 103.654 84.2766 104.254 84.5451C104.855 84.8082 105.373 85.2129 105.809 85.7528C106.28 86.3523 106.615 87.178 106.805 88.2328C106.999 89.2876 107.097 91.1421 107.097 93.7919C107.097 96.1102 107.046 97.7645 106.945 98.7556C106.841 99.7511 106.672 100.555 106.431 101.168C106.096 102.031 105.553 102.694 104.808 103.153C104.064 103.618 103.157 103.847 102.089 103.847C100.664 103.847 99.5601 103.417 98.7756 102.554C97.9918 101.691 97.599 100.461 97.599 98.8708L101.053 98.8831C101.067 99.4787 101.164 99.9258 101.348 100.227C101.532 100.53 101.797 100.683 102.15 100.683C102.592 100.683 102.905 100.453 103.089 99.9934C103.272 99.5295 103.362 98.7216 103.362 97.5691C103.362 97.2204 103.362 96.948 103.359 96.7526C103.355 96.5566 103.352 96.3825 103.344 96.2248ZM103.427 90.6019C103.427 89.4492 103.33 88.6323 103.136 88.1521C102.945 87.6752 102.615 87.4373 102.15 87.4373C101.743 87.4373 101.452 87.6712 101.283 88.1436C101.114 88.6113 101.031 89.4577 101.031 90.6782C101.031 91.8484 101.121 92.6731 101.304 93.154C101.488 93.6302 101.801 93.8682 102.243 93.8682C102.69 93.8682 102.996 93.6473 103.168 93.2094C103.34 92.7669 103.427 91.8992 103.427 90.6019ZM114.917 96.2248C114.514 96.5225 114.115 96.7481 113.719 96.8926C113.32 97.0375 112.913 97.1097 112.499 97.1097C111.305 97.1097 110.416 96.6163 109.83 95.6254C109.248 94.6381 108.956 93.1327 108.956 91.112C108.956 88.7684 109.352 87.0204 110.143 85.8722C110.934 84.719 112.136 84.1451 113.755 84.1451C114.536 84.1451 115.226 84.2766 115.827 84.5451C116.428 84.8082 116.946 85.2129 117.381 85.7528C117.853 86.3523 118.187 87.178 118.378 88.2328C118.571 89.2876 118.669 91.1421 118.669 93.7919C118.669 96.1102 118.618 97.7645 118.517 98.7556C118.414 99.7511 118.244 100.555 118.003 101.168C117.669 102.031 117.125 102.694 116.381 103.153C115.636 103.618 114.73 103.847 113.661 103.847C112.237 103.847 111.132 103.417 110.348 102.554C109.564 101.691 109.172 100.461 109.172 98.8708L112.625 98.8831C112.64 99.4787 112.737 99.9258 112.92 100.227C113.104 100.53 113.37 100.683 113.722 100.683C114.165 100.683 114.478 100.453 114.661 99.9934C114.845 99.5295 114.934 98.7216 114.934 97.5691C114.934 97.2204 114.934 96.948 114.931 96.7526C114.927 96.5566 114.924 96.3825 114.917 96.2248ZM115 90.6019C115 89.4492 114.902 88.6323 114.708 88.1521C114.517 87.6752 114.187 87.4373 113.722 87.4373C113.316 87.4373 113.025 87.6712 112.855 88.1436C112.686 88.6113 112.604 89.4577 112.604 90.6782C112.604 91.8484 112.694 92.6731 112.877 93.154C113.06 93.6302 113.373 93.8682 113.816 93.8682C114.263 93.8682 114.568 93.6473 114.741 93.2094C114.913 92.7669 115 91.8992 115 90.6019ZM120.349 104.986H119.203L122.495 90.8683H123.643L120.349 104.986ZM124.017 100.078V97.6081H128.236V100.078H124.017Z" fill="#102694"/>
<path d="M62.7634 77.0299L133.349 107.489M133.349 77.0299L62.7627 107.489" stroke="#FF2E17" stroke-width="0.9099" stroke-miterlimit="22.9256"/>
</svg>
