<svg width="174" height="129" viewBox="0 0 174 129" fill="none" xmlns="http://www.w3.org/2000/svg">
<path d="M4.3065 0C3.74096 0 3.18096 0.109754 2.65847 0.322997C2.13599 0.53624 1.66124 0.848795 1.26134 1.24282C0.861449 1.63684 0.544235 2.10461 0.327813 2.61942C0.111391 3.13424 0 3.68601 0 4.24324L0 124.757C0 125.882 0.453719 126.961 1.26134 127.757C2.06897 128.553 3.16435 129 4.3065 129H169.694C170.836 129 171.931 128.553 172.739 127.757C173.546 126.961 174 125.882 174 124.757V4.24324C174 3.11786 173.546 2.03858 172.739 1.24282C171.931 0.447054 170.836 0 169.694 0H4.3065ZM10.5044 8.48648H20.4711C20.0303 9.1667 19.7955 9.95669 19.7942 10.7638C19.7942 11.3211 19.9057 11.873 20.1222 12.388C20.3388 12.9029 20.6561 13.3707 21.0562 13.7648C21.4563 14.1588 21.9312 14.4714 22.4539 14.6845C22.9766 14.8976 23.5368 15.0072 24.1025 15.007C25.2446 15.007 26.34 14.5599 27.1476 13.7642C27.9553 12.9684 28.409 11.8891 28.409 10.7638C28.4086 10.6553 28.4039 10.5468 28.3951 10.4387L31.9829 15.0706C30.9829 15.2407 30.076 15.7533 29.4221 16.518C28.7682 17.2827 28.4094 18.2503 28.409 19.2502C28.4088 19.8076 28.52 20.3596 28.7363 20.8746C28.9526 21.3896 29.2698 21.8576 29.6697 22.2518C30.0696 22.646 30.5444 22.9587 31.0671 23.172C31.5897 23.3854 32.1498 23.4952 32.7155 23.4952C33.5335 23.4949 34.3345 23.265 35.0247 22.8324C35.715 22.3999 36.2659 21.7826 36.6131 21.0528L39.0178 24.1608C38.4066 24.5437 37.9034 25.0723 37.5545 25.6976C37.2057 26.3229 37.0225 27.0249 37.022 27.7384C37.022 28.2958 37.1334 28.8477 37.35 29.3627C37.5665 29.8776 37.8839 30.3454 38.2839 30.7395C38.684 31.1335 39.159 31.446 39.6817 31.6592C40.2043 31.8723 40.7645 31.9819 41.3302 31.9817C42.3982 31.9803 43.4277 31.588 44.2186 30.8809L46.4458 33.7533C45.9206 34.4736 45.6376 35.338 45.6367 36.2249C45.6371 37.2337 46.0023 38.2094 46.6668 38.9769L44.3108 41.6481C43.5089 40.8907 42.441 40.468 41.3302 40.4682C40.7645 40.4679 40.2043 40.5775 39.6817 40.7907C39.159 41.0038 38.684 41.3163 38.2839 41.7104C37.8839 42.1044 37.5665 42.5723 37.35 43.0872C37.1334 43.6021 37.022 44.154 37.022 44.7114C37.0217 45.3544 37.1697 45.989 37.4549 46.5674C37.74 47.1458 38.1549 47.6527 38.668 48.0499L38.4244 48.3251L36.2564 50.7847C35.8603 50.2203 35.3313 49.759 34.7146 49.4402C34.0978 49.1215 33.4119 48.9549 32.7155 48.9546C32.6743 48.9541 32.6331 48.9541 32.5919 48.9546C31.4713 48.9863 30.4074 49.4473 29.6263 50.2397C28.8452 51.032 28.4085 52.0933 28.409 53.1979C28.4088 53.7553 28.52 54.3072 28.7363 54.8222C28.9526 55.3372 29.2698 55.8052 29.6697 56.1994C30.0696 56.5936 30.5444 56.9063 31.0671 57.1197C31.5897 57.333 32.1498 57.4428 32.7155 57.4428C33.4598 57.4421 34.1911 57.2513 34.8383 56.889L34.4311 60.1536L33.6986 66.0411C33.3763 65.9668 33.0465 65.9292 32.7155 65.9293C32.6743 65.9287 32.6331 65.9287 32.5919 65.9293C31.4713 65.961 30.4074 66.422 29.6263 67.2144C28.8452 68.0067 28.4085 69.068 28.409 70.1726C28.4095 70.5647 28.4651 70.9548 28.5743 71.3318L18.6685 67.3139C18.2651 66.878 17.7739 66.5296 17.2262 66.2912C16.6786 66.0528 16.0865 65.9296 15.4877 65.9293C15.4466 65.9287 15.4054 65.9287 15.3642 65.9293C15.3329 65.9313 15.3015 65.9336 15.2702 65.9362L10.4852 63.996C10.9389 63.3085 11.1807 62.5062 11.1812 61.6861C11.1812 60.8633 10.9384 60.0584 10.4824 59.3691C10.0265 58.6799 9.37696 58.1361 8.613 57.804V48.5934C9.37696 48.2614 10.0265 47.7176 10.4824 47.0284C10.9384 46.3391 11.1812 45.5341 11.1812 44.7114C11.1812 43.8887 10.9384 43.0837 10.4824 42.3944C10.0265 41.7052 9.37696 41.1614 8.613 40.8294V31.6205C9.37696 31.2884 10.0265 30.7446 10.4824 30.0554C10.9384 29.3662 11.1812 28.5612 11.1812 27.7384C11.1812 26.9157 10.9384 26.1107 10.4824 25.4215C10.0265 24.7322 9.37696 24.1885 8.613 23.8564V14.6458C9.37696 14.3137 10.0265 13.77 10.4824 13.0807C10.9384 12.3915 11.1812 11.5865 11.1812 10.7638C11.18 9.95669 10.9452 9.1667 10.5044 8.48648ZM33.3854 8.48648H53.0265L104.896 73.9789L90.8454 88.2102L90.6679 88.5542C90.6679 88.5542 84.2699 100.952 77.818 113.561C76.5391 116.059 75.429 118.252 74.2806 120.514H56.6927L68.1767 100.102C88.4564 82.1678 86.0674 71.0618 75.7979 53.6107L53.9261 35.0175L33.3854 8.48648ZM59.5811 8.48648H59.896L59.7185 8.66192L59.5811 8.48648ZM64.768 8.48648H69.1058L63.7553 13.76L61.8553 11.3589L64.768 8.48648ZM73.9778 8.48648H78.3122L67.7939 18.8529L65.8921 16.4535L73.9778 8.48648ZM83.1877 8.48648H87.5203L71.8289 23.9493L69.9271 21.5516L83.1877 8.48648ZM92.3923 8.48648H96.7318L75.864 29.0439L73.9639 26.648L92.3923 8.48648ZM104.116 8.48648H111.229C111.421 9.2151 111.852 9.86051 112.456 10.3213C113.059 10.7821 113.801 11.0321 114.565 11.0321C115.328 11.0317 116.07 10.7815 116.673 10.3208C117.277 9.86001 117.708 9.21482 117.899 8.48648H125.012C125.203 9.21482 125.634 9.86001 126.238 10.3208C126.841 10.7815 127.583 11.0317 128.346 11.0321C129.11 11.0321 129.852 10.7821 130.455 10.3213C131.059 9.86051 131.49 9.2151 131.681 8.48648H138.795C138.986 9.21482 139.417 9.86001 140.02 10.3208C140.623 10.7815 141.365 11.0317 142.128 11.0321C142.892 11.0321 143.634 10.7821 144.238 10.3213C144.842 9.86051 145.273 9.2151 145.464 8.48648H152.577C152.768 9.21482 153.199 9.86001 153.803 10.3208C154.406 10.7815 155.148 11.0317 155.911 11.0321C156.674 11.0317 157.416 10.7815 158.019 10.3208C158.623 9.86001 159.054 9.21482 159.245 8.48648H165.387V12.1845C165.064 11.8225 164.666 11.5324 164.22 11.3337C163.774 11.135 163.291 11.0322 162.801 11.0321C161.888 11.0321 161.011 11.3898 160.365 12.0265C159.719 12.6633 159.356 13.5269 159.356 14.4274C159.356 14.8732 159.445 15.3147 159.618 15.7267C159.792 16.1386 160.045 16.5129 160.365 16.8282C160.685 17.1435 161.065 17.3936 161.483 17.5642C161.901 17.7348 162.349 17.8226 162.801 17.8226C163.291 17.8225 163.774 17.7197 164.22 17.521C164.666 17.3223 165.064 17.0323 165.387 16.6702V25.7622C165.064 25.4005 164.666 25.1108 164.22 24.9124C163.774 24.7139 163.291 24.6114 162.801 24.6115C162.796 24.6115 162.79 24.6115 162.784 24.6115C161.873 24.616 161.001 24.9757 160.359 25.612C159.717 26.2482 159.356 27.1092 159.356 28.0068C159.356 28.9072 159.719 29.7708 160.365 30.4076C161.011 31.0443 161.888 31.402 162.801 31.402C163.291 31.4015 163.774 31.2982 164.219 31.0992C164.665 30.9003 165.062 30.61 165.385 30.2479V39.3416C165.062 38.9798 164.665 38.6899 164.219 38.4912C163.774 38.2925 163.29 38.1895 162.801 38.1892C162.796 38.1891 162.79 38.1891 162.784 38.1892C161.873 38.1937 161.001 38.5536 160.358 39.1903C159.716 39.8269 159.356 40.6883 159.356 41.5862C159.357 42.4863 159.72 43.3495 160.366 43.9859C161.012 44.6222 161.888 44.9797 162.801 44.9797C163.29 44.9794 163.774 44.8764 164.219 44.6777C164.665 44.479 165.062 44.1891 165.385 43.8273V52.921C165.062 52.5592 164.665 52.2693 164.219 52.0706C163.774 51.8719 163.29 51.7689 162.801 51.7686C162.024 51.7686 161.269 52.0278 160.66 52.504C160.051 52.9802 159.623 53.6454 159.447 54.3916L154.006 55.1054L152.462 55.3066C152.464 55.259 152.466 55.2114 152.466 55.1638C152.465 54.2637 152.102 53.4005 151.456 52.7641C150.81 52.1278 149.934 51.7703 149.021 51.7703C148.107 51.7703 147.231 52.1278 146.585 52.7641C145.939 53.4005 145.576 54.2637 145.575 55.1638C145.575 55.5105 145.629 55.855 145.735 56.1855L143.247 56.5106L137.999 57.1934C138.443 56.6072 138.683 55.8953 138.683 55.1638C138.683 54.2637 138.32 53.4005 137.674 52.7641C137.027 52.1278 136.151 51.7703 135.238 51.7703C134.673 51.7695 134.117 51.9056 133.618 52.1666C133.119 52.4275 132.693 52.8053 132.377 53.2667L130.759 50.7985C131.086 50.4825 131.346 50.1054 131.524 49.6893C131.701 49.2732 131.793 48.8264 131.793 48.375C131.793 47.4745 131.43 46.6109 130.784 45.9742C130.138 45.3374 129.261 44.9797 128.348 44.9797C128.342 44.9797 128.336 44.9797 128.33 44.9797C127.909 44.9822 127.491 45.0609 127.098 45.2119L124.89 41.8407C124.897 41.756 124.9 41.6711 124.901 41.5862C124.9 40.8903 124.683 40.2114 124.278 39.6414C123.873 39.0713 123.3 38.6376 122.637 38.399L113.488 24.4395C113.835 24.5528 114.199 24.6109 114.565 24.6115C115.479 24.6115 116.355 24.254 117.001 23.6176C117.647 22.9813 118.01 22.1181 118.01 21.2179C118.01 20.3174 117.647 19.4538 117.001 18.8171C116.355 18.1804 115.479 17.8226 114.565 17.8226C114.559 17.8226 114.553 17.8226 114.548 17.8226C113.701 17.8267 112.885 18.1379 112.257 18.6969C111.628 19.2559 111.23 20.0236 111.139 20.8533L108.985 17.5681C109.616 17.3118 110.156 16.8765 110.536 16.3173C110.916 15.7581 111.118 15.1003 111.118 14.4274C111.118 13.5269 110.755 12.6633 110.109 12.0265C109.463 11.3898 108.587 11.0321 107.673 11.0321C106.795 11.0337 105.95 11.3659 105.312 11.9609L103.68 9.47204C103.68 9.47089 103.68 9.46975 103.68 9.4686C103.877 9.16662 104.024 8.83399 104.116 8.48648ZM121.455 11.0338C120.542 11.0338 119.665 11.3915 119.019 12.0283C118.373 12.665 118.01 13.5286 118.01 14.4291C118.01 15.3296 118.373 16.1932 119.019 16.8299C119.665 17.4666 120.542 17.8244 121.455 17.8244C122.369 17.8244 123.246 17.4666 123.892 16.8299C124.538 16.1932 124.901 15.3296 124.901 14.4291C124.901 13.5286 124.538 12.665 123.892 12.0283C123.246 11.3915 122.369 11.0338 121.455 11.0338ZM135.236 11.0338C134.323 11.0338 133.446 11.3915 132.8 12.0283C132.154 12.665 131.791 13.5286 131.791 14.4291C131.791 15.3296 132.154 16.1932 132.8 16.8299C133.446 17.4666 134.323 17.8244 135.236 17.8244C135.689 17.8246 136.137 17.7369 136.555 17.5664C136.973 17.3959 137.353 17.1458 137.674 16.8305C137.994 16.5152 138.248 16.1408 138.421 15.7288C138.594 15.3167 138.683 14.8751 138.683 14.4291C138.683 13.5286 138.32 12.665 137.674 12.0283C137.028 11.3915 136.15 11.0338 135.236 11.0338ZM149.022 11.0338C148.109 11.0338 147.232 11.3915 146.586 12.0283C145.94 12.665 145.577 13.5286 145.577 14.4291C145.577 15.3296 145.94 16.1932 146.586 16.8299C147.232 17.4666 148.109 17.8244 149.022 17.8244C149.936 17.8244 150.812 17.4666 151.458 16.8299C152.105 16.1932 152.468 15.3296 152.468 14.4291C152.468 13.5286 152.105 12.665 151.458 12.0283C150.812 11.3915 149.936 11.0338 149.022 11.0338ZM98.7363 11.3159L100.438 13.9131L79.9008 34.142L78.0042 31.7409L98.7363 11.3159ZM15.486 15.007C14.9203 15.007 14.3602 15.1168 13.8376 15.3302C13.315 15.5435 12.8401 15.8562 12.4402 16.2504C12.0403 16.6446 11.7231 17.1126 11.5068 17.6276C11.2905 18.1426 11.1793 18.6946 11.1795 19.252C11.1795 20.3773 11.6332 21.4566 12.4408 22.2524C13.2485 23.0481 14.3438 23.4952 15.486 23.4952C16.6282 23.4952 17.7235 23.0481 18.5312 22.2524C19.3388 21.4566 19.7925 20.3773 19.7925 19.252C19.7927 18.6946 19.6815 18.1426 19.4652 17.6276C19.2489 17.1126 18.9317 16.6446 18.5318 16.2504C18.1319 15.8562 17.657 15.5435 17.1344 15.3302C16.6118 15.1168 16.0517 15.007 15.486 15.007ZM102.345 16.8285L104.047 19.424L83.9359 39.2384L82.0358 36.839L102.345 16.8285ZM128.328 17.8226C127.418 17.8272 126.546 18.1869 125.904 18.8231C125.261 19.4594 124.901 20.3204 124.901 21.2179C124.901 22.1181 125.264 22.9813 125.91 23.6176C126.556 24.254 127.432 24.6115 128.346 24.6115C129.259 24.6115 130.135 24.254 130.781 23.6176C131.427 22.9813 131.791 22.1181 131.791 21.2179C131.791 20.3174 131.428 19.4538 130.782 18.8171C130.136 18.1804 129.26 17.8226 128.346 17.8226C128.34 17.8226 128.334 17.8226 128.328 17.8226ZM142.109 17.8226C141.199 17.8272 140.327 18.1869 139.684 18.8231C139.042 19.4594 138.681 20.3204 138.681 21.2179C138.682 22.1181 139.045 22.9813 139.691 23.6176C140.337 24.254 141.213 24.6115 142.127 24.6115C143.04 24.6115 143.916 24.254 144.562 23.6176C145.208 22.9813 145.571 22.1181 145.572 21.2179C145.572 20.3174 145.209 19.4538 144.563 18.8171C143.917 18.1804 143.04 17.8226 142.127 17.8226C142.121 17.8226 142.115 17.8226 142.109 17.8226ZM155.892 17.8226C154.981 17.8272 154.109 18.1869 153.467 18.8231C152.825 19.4594 152.464 20.3204 152.464 21.2179C152.464 22.1181 152.828 22.9813 153.474 23.6176C154.12 24.254 154.996 24.6115 155.909 24.6115C156.823 24.6115 157.699 24.254 158.345 23.6176C158.991 22.9813 159.354 22.1181 159.354 21.2179C159.354 20.3174 158.991 19.4538 158.345 18.8171C157.699 18.1804 156.823 17.8226 155.909 17.8226C155.903 17.8226 155.898 17.8226 155.892 17.8226ZM105.959 22.3411L107.659 24.94L87.9761 44.333L86.0743 41.9336L105.959 22.3411ZM24.1007 23.4935C23.5349 23.4933 22.9746 23.6029 22.4518 23.8161C21.929 24.0294 21.4539 24.3421 21.0538 24.7363C20.6537 25.1305 20.3364 25.5986 20.12 26.1137C19.9036 26.6288 19.7923 27.1809 19.7925 27.7384C19.7925 28.2958 19.9039 28.8477 20.1205 29.3627C20.337 29.8776 20.6544 30.3454 21.0545 30.7395C21.4545 31.1335 21.9295 31.446 22.4522 31.6592C22.9749 31.8723 23.5351 31.9819 24.1007 31.9817C25.2429 31.9817 26.3383 31.5346 27.1459 30.7389C27.9535 29.9431 28.4072 28.8638 28.4072 27.7384C28.4072 26.6131 27.9535 25.5338 27.1459 24.738C26.3383 23.9423 25.2429 23.4935 24.1007 23.4935ZM121.436 24.6132C120.526 24.6177 119.654 24.9774 119.011 25.6137C118.369 26.2499 118.009 27.111 118.009 28.0085C118.009 28.909 118.372 29.7726 119.018 30.4093C119.664 31.046 120.54 31.4038 121.454 31.4038C122.367 31.4038 123.244 31.046 123.89 30.4093C124.536 29.7726 124.899 28.909 124.899 28.0085C124.899 27.108 124.536 26.2444 123.89 25.6077C123.244 24.9709 122.367 24.6132 121.454 24.6132C121.448 24.6132 121.442 24.6132 121.436 24.6132ZM135.219 24.6132C134.308 24.6177 133.436 24.9774 132.794 25.6137C132.152 26.2499 131.791 27.111 131.791 28.0085C131.791 28.4544 131.88 28.8959 132.053 29.3078C132.226 29.7197 132.48 30.094 132.8 30.4093C133.12 30.7246 133.5 30.9747 133.918 31.1453C134.336 31.3159 134.784 31.4038 135.236 31.4038C136.15 31.4038 137.026 31.046 137.672 30.4093C138.319 29.7726 138.681 28.909 138.681 28.0085C138.681 27.108 138.319 26.2444 137.672 25.6077C137.026 24.9709 136.15 24.6132 135.236 24.6132C135.23 24.6132 135.225 24.6132 135.219 24.6132ZM149 24.6132C148.089 24.6177 147.217 24.9774 146.575 25.6137C145.932 26.2499 145.572 27.111 145.572 28.0085C145.572 28.909 145.935 29.7726 146.581 30.4093C147.227 31.046 148.103 31.4038 149.017 31.4038C149.931 31.4038 150.807 31.046 151.453 30.4093C152.099 29.7726 152.462 28.909 152.462 28.0085C152.462 27.108 152.099 26.2444 151.453 25.6077C150.807 24.9709 149.931 24.6132 149.017 24.6132C149.011 24.6132 149.005 24.6132 149 24.6132ZM109.57 27.8588L111.073 30.1499L111.271 30.4543L92.0112 49.4328L90.1094 47.0317L109.57 27.8588ZM128.327 31.402C127.416 31.4066 126.544 31.7663 125.902 32.4025C125.26 33.0388 124.899 33.8998 124.899 34.7973C124.899 35.6978 125.262 36.5614 125.908 37.1981C126.554 37.8349 127.43 38.1926 128.344 38.1926C128.797 38.1926 129.245 38.1048 129.663 37.9341C130.081 37.7635 130.46 37.5134 130.78 37.1981C131.1 36.8829 131.354 36.5086 131.527 36.0966C131.7 35.6847 131.789 35.2432 131.789 34.7973C131.789 33.8971 131.426 33.034 130.78 32.3976C130.134 31.7612 129.258 31.4038 128.344 31.4038C128.338 31.4037 128.333 31.402 128.327 31.402ZM142.109 31.4038C141.199 31.4083 140.327 31.768 139.684 32.4043C139.042 33.0405 138.681 33.9015 138.681 34.799C138.681 35.6995 139.044 36.5631 139.691 37.1999C140.337 37.8366 141.213 38.1943 142.127 38.1943C142.579 38.1943 143.027 38.1065 143.445 37.9359C143.863 37.7652 144.243 37.5151 144.563 37.1999C144.883 36.8846 145.136 36.5103 145.31 36.0984C145.483 35.6864 145.572 35.2449 145.572 34.799C145.571 33.8989 145.208 33.0357 144.562 32.3993C143.916 31.763 143.04 31.4055 142.127 31.4055C142.121 31.4055 142.115 31.4055 142.109 31.4055M155.892 31.4055C154.981 31.41 154.109 31.7697 153.467 32.406C152.825 33.0422 152.464 33.9032 152.464 34.8008C152.464 35.7012 152.827 36.5648 153.473 37.2016C154.119 37.8383 154.995 38.196 155.909 38.196C156.362 38.196 156.81 38.1082 157.228 37.9376C157.646 37.767 158.025 37.5169 158.345 37.2016C158.665 36.8863 158.919 36.512 159.092 36.1001C159.265 35.6881 159.354 35.2466 159.354 34.8008C159.354 33.9006 158.991 33.0374 158.345 32.401C157.699 31.7647 156.823 31.4072 155.909 31.4072C155.903 31.4072 155.898 31.4055 155.892 31.4055ZM15.486 31.9886C14.3438 31.9886 13.2485 32.4356 12.4408 33.2314C11.6332 34.0271 11.1795 35.1064 11.1795 36.2318C11.1795 37.3572 11.6332 38.4365 12.4408 39.2322C13.2485 40.028 14.3438 40.475 15.486 40.475C16.6282 40.475 17.7235 40.028 18.5312 39.2322C19.3388 38.4365 19.7925 37.3572 19.7925 36.2318C19.7925 35.1064 19.3388 34.0271 18.5312 33.2314C17.7235 32.4356 16.6282 31.9886 15.486 31.9886ZM32.7137 31.9886C31.5716 31.9886 30.4762 32.4356 29.6686 33.2314C28.861 34.0271 28.4072 35.1064 28.4072 36.2318C28.4072 37.3572 28.861 38.4365 29.6686 39.2322C30.4762 40.028 31.5716 40.475 32.7137 40.475C33.8559 40.475 34.9513 40.028 35.7589 39.2322C36.5665 38.4365 37.0202 37.3572 37.0202 36.2318C37.0202 35.6746 36.9089 35.1228 36.6924 34.608C36.476 34.0932 36.1588 33.6254 35.7589 33.2314C35.359 32.8374 34.8843 32.5248 34.3618 32.3116C33.8393 32.0983 33.2793 31.9886 32.7137 31.9886ZM113.184 33.3766L113.519 33.8926L114.882 35.9738L96.0428 54.5343L94.1462 52.1349L113.184 33.3766ZM135.219 38.1978C134.308 38.2023 133.436 38.562 132.794 39.1983C132.152 39.8345 131.791 40.6955 131.791 41.593C131.792 42.4932 132.155 43.3564 132.801 43.9928C133.447 44.6291 134.323 44.9866 135.236 44.9866C136.15 44.9866 137.026 44.6291 137.672 43.9928C138.318 43.3564 138.681 42.4932 138.681 41.593C138.681 40.6926 138.319 39.829 137.672 39.1922C137.026 38.5555 136.15 38.1978 135.236 38.1978C135.23 38.1977 135.225 38.1977 135.219 38.1978ZM149 38.1978C148.089 38.2023 147.217 38.562 146.575 39.1983C145.932 39.8345 145.572 40.6955 145.572 41.593C145.572 42.4932 145.936 43.3564 146.582 43.9928C147.228 44.6291 148.104 44.9866 149.017 44.9866C149.93 44.9866 150.807 44.6291 151.453 43.9928C152.099 43.3564 152.462 42.4932 152.462 41.593C152.462 40.6926 152.099 39.829 151.453 39.1922C150.807 38.5555 149.931 38.1978 149.017 38.1978C149.011 38.1977 149.005 38.1977 149 38.1978ZM116.798 38.8909L117.469 39.9178L118.496 41.4864L100.085 59.6238L98.1865 57.2227L116.798 38.8909ZM24.1007 40.475C23.5351 40.4748 22.9749 40.5844 22.4522 40.7975C21.9295 41.0107 21.4545 41.3232 21.0545 41.7173C20.6544 42.1113 20.337 42.5791 20.1205 43.0941C19.9039 43.609 19.7925 44.1609 19.7925 44.7183C19.7925 45.2757 19.9039 45.8276 20.1205 46.3425C20.337 46.8574 20.6544 47.3253 21.0545 47.7193C21.4545 48.1134 21.9295 48.4259 22.4522 48.639C22.9749 48.8522 23.5351 48.9617 24.1007 48.9615C25.2429 48.9615 26.3383 48.5145 27.1459 47.7187C27.9535 46.9229 28.4072 45.8437 28.4072 44.7183C28.4072 43.5929 27.9535 42.5136 27.1459 41.7179C26.3383 40.9221 25.2429 40.475 24.1007 40.475ZM120.408 44.3966L122.11 46.9938L104.118 64.7184L102.218 62.319L120.408 44.3966ZM142.109 44.9814C141.199 44.986 140.327 45.3455 139.685 45.9813C139.043 46.6172 138.682 47.4778 138.681 48.375C138.681 49.2755 139.044 50.1391 139.691 50.7758C140.337 51.4126 141.213 51.7703 142.127 51.7703C143.04 51.7703 143.917 51.4126 144.563 50.7758C145.209 50.1391 145.572 49.2755 145.572 48.375C145.572 47.4745 145.209 46.6109 144.563 45.9742C143.917 45.3374 143.04 44.9797 142.127 44.9797C142.121 44.9797 142.115 44.9814 142.109 44.9814ZM155.892 44.9797C154.981 44.9843 154.11 45.3437 153.468 45.9796C152.825 46.6155 152.464 47.4761 152.464 48.3733C152.464 49.2738 152.827 50.1374 153.473 50.7741C154.119 51.4108 154.995 51.7686 155.909 51.7686C156.823 51.7686 157.699 51.4108 158.345 50.7741C158.991 50.1374 159.354 49.2738 159.354 48.3733C159.354 47.4728 158.991 46.6092 158.345 45.9725C157.699 45.3357 156.823 44.978 155.909 44.978C155.903 44.978 155.898 44.9797 155.892 44.9797ZM15.3642 48.9529C14.2436 48.9846 13.1797 49.4456 12.3986 50.238C11.6175 51.0303 11.1808 52.0916 11.1812 53.1962C11.181 53.7535 11.2922 54.3055 11.5086 54.8205C11.7249 55.3355 12.042 55.8035 12.442 56.1977C12.8419 56.5919 13.3167 56.9046 13.8393 57.118C14.3619 57.3313 14.9221 57.4411 15.4877 57.4411C16.0534 57.4411 16.6136 57.3313 17.1362 57.118C17.6588 56.9046 18.1336 56.5919 18.5335 56.1977C18.9334 55.8035 19.2506 55.3355 19.4669 54.8205C19.6832 54.3055 19.7945 53.7535 19.7942 53.1962C19.7942 52.0708 19.3405 50.9915 18.5329 50.1957C17.7253 49.4 16.6299 48.9529 15.4877 48.9529C15.4466 48.9523 15.4054 48.9523 15.3642 48.9529ZM124.022 49.9075L125.725 52.5047L108.158 69.8148L106.257 67.4137L124.022 49.9075ZM58.2378 55.1277C58.25 55.1277 58.2622 55.1277 58.2743 55.1277C60.8217 55.1277 63.2647 56.1246 65.066 57.899C66.8672 59.6734 67.8791 62.08 67.8791 64.5894C67.8787 67.0985 66.8665 69.5047 65.0653 71.2788C63.2641 73.0528 60.8214 74.0494 58.2743 74.0494C55.7276 74.049 53.2853 73.0522 51.4845 71.2782C49.6836 69.5042 48.6717 67.0982 48.6713 64.5894C48.6717 62.0869 49.6786 59.6864 51.4715 57.9134C53.2645 56.1404 55.6974 55.1377 58.2378 55.1277ZM127.636 55.4253L129.336 58.0225L125.17 62.1281L115.531 67.3535L127.636 55.4253ZM23.9772 57.4428C22.8566 57.4745 21.7927 57.9355 21.0116 58.7279C20.2305 59.5202 19.7938 60.5815 19.7942 61.6861C19.7942 62.2435 19.9057 62.7954 20.1222 63.3103C20.3388 63.8252 20.6561 64.2931 21.0562 64.6871C21.4563 65.0812 21.9312 65.3937 22.4539 65.6068C22.9766 65.82 23.5368 65.9295 24.1025 65.9293C25.2446 65.9293 26.34 65.4823 27.1476 64.6865C27.9553 63.8907 28.409 62.8115 28.409 61.6861C28.409 60.5607 27.9553 59.4814 27.1476 58.6857C26.34 57.8899 25.2446 57.4428 24.1025 57.4428C24.0607 57.4422 24.019 57.4422 23.9772 57.4428ZM165.387 58.7586V60.6644L163.677 58.9788L165.387 58.7586ZM159.374 59.543L165.387 65.4684V69.7374L155.544 60.0418L156.645 59.899L159.374 59.543ZM151.244 60.6042L165.387 74.5379V78.8121L147.413 61.1047L151.244 60.6042ZM143.112 61.6654L165.387 83.6126V87.8851L139.282 62.166L143.112 61.6654ZM134.979 62.7267L165.387 92.6856V96.9581L132.111 64.1749L134.726 62.7594L134.979 62.7267ZM128.969 65.8794L165.387 101.759V106.033L126.173 67.3948L128.969 65.8794ZM123.027 69.0976L165.387 110.833V115.106L120.231 70.6163L123.027 69.0976ZM11.3083 69.8372L14.3811 71.0807L8.613 76.7636V72.4928L11.3083 69.8372ZM117.088 72.3174L165.387 119.906V120.514H161.669L114.292 73.8362L117.088 72.3174ZM17.8333 72.4825L17.9585 72.5341L20.9026 73.7295L8.613 85.8366V81.5658L17.8333 72.4825ZM24.36 75.1296L26.7316 76.0945L27.4276 76.3766L8.613 94.9096V90.6406L24.36 75.1296ZM111.151 75.5424L156.791 120.512H152.459L108.715 77.4155L109.904 76.2115L111.151 75.5424ZM30.8798 77.775L33.3297 78.7708L33.7038 79.2679L8.613 103.983V99.7136L30.8798 77.775ZM106.314 79.8493L147.587 120.514H143.249L104.174 82.0148L106.314 79.8493ZM35.7814 82.0165L37.631 84.4675L8.613 113.056V108.783L35.7814 82.0165ZM101.771 84.4468L138.377 120.514H134.039L99.6341 86.6158L101.771 84.4468ZM39.712 87.2212L41.5616 89.6705L10.2556 120.514H8.613V117.858L39.712 87.2212ZM97.2329 89.0513L129.167 120.515H124.831L95.0945 91.2116V91.2082L97.2329 89.0513ZM43.6409 92.4225L44.0759 92.9987L45.4888 94.8735L19.4654 120.515H15.1276L43.6409 92.4225ZM93.4571 94.4005L119.957 120.515H115.625L92.0008 97.2368L93.4571 94.4005ZM47.9822 97.2196L51.5353 97.9884L28.6717 120.515H24.3391L47.9822 97.2196ZM55.5338 98.8536L59.0852 99.6224L37.8815 120.515H33.5472L55.5338 98.8536ZM90.3617 100.426L110.749 120.515H106.415L88.9053 103.264L90.3617 100.426ZM60.7608 102.77L55.3651 112.361L47.0896 120.514H42.7535L60.7608 102.77ZM87.2662 106.447L101.543 120.514H97.2051L85.8064 109.282C86.4763 107.975 86.6503 107.644 87.2662 106.447ZM84.169 112.471L92.3331 120.514H87.9953L82.7092 115.305C83.44 113.878 83.4556 113.861 84.169 112.471ZM81.0823 118.501L83.125 120.514H80.0609C80.3932 119.855 80.7151 119.222 81.0823 118.501Z" fill="#FFF2E4"/>
</svg>
