<svg width="1349" height="284" viewBox="0 0 1349 284" fill="none" xmlns="http://www.w3.org/2000/svg">
<path fill-rule="evenodd" clip-rule="evenodd" d="M659.96 141.336H673.753V62.6913H659.96V141.336ZM639.559 141.336H653.352V76.4838H639.559V141.336ZM632.953 90.2772H619.159V141.336H632.953V90.2772ZM349.334 190.179H387.257L398.976 214.279H432.168L368.239 85.4121L352.22 118.024L368.239 151.072L376.31 167.668H360.301H327.688L316.578 190.179L304.599 214.279H337.646L349.334 190.179ZM586 94.752C577.774 97.7831 570.56 102.111 564.497 107.596C558.292 113.223 553.676 119.862 550.212 127.655C546.893 135.447 545.305 144.105 545.305 153.63C545.305 163.297 546.893 171.958 550.212 179.894C553.531 187.831 558.004 194.612 563.921 200.386C569.837 206.013 576.765 210.487 584.845 213.519C592.926 216.548 601.875 218.135 611.542 218.135C621.789 218.135 631.023 216.26 638.962 212.652C646.899 209.045 653.536 203.992 658.876 197.498C664.215 191.004 668.11 183.645 670.565 175.131C673.163 166.761 674.173 157.67 673.594 148.001H612.265V170.512H644.445C643.435 173.544 641.992 176.574 640.26 179.173C638.382 181.915 636.219 184.367 633.766 186.388C631.169 188.407 628.139 189.85 624.529 191.004C620.922 192.16 617.025 192.593 612.552 192.593C605.482 192.593 599.133 191.004 593.649 187.831C588.166 184.656 583.835 180.181 580.662 174.409C577.487 168.493 575.9 161.711 575.9 153.63C575.9 145.548 577.487 138.767 580.805 133.138C584.124 127.51 588.597 123.326 594.08 120.294C599.565 117.264 605.77 115.82 612.552 115.82V90.2792C603.029 90.2792 594.08 91.8658 586 94.752ZM508.794 93.0603L489.892 132.166L506.053 165.502L541.842 93.0603H508.794ZM414.272 93.0603L478.201 221.927L494.365 189.315L478.201 156.268L447.464 93.0603H414.272ZM1112.3 134.704H1093.53V187.561H1093.51C1093.51 194.999 1086.12 201.071 1076.94 201.071C1067.75 201.071 1060.37 194.999 1060.37 187.561H1060.34V134.704H1041.58V187.561H1041.61C1041.61 203.477 1057.41 216.384 1076.94 216.384C1096.46 216.384 1112.32 203.477 1112.32 187.561H1112.3V134.704ZM1302.99 135.31C1298.76 136.875 1295.4 139.282 1292.91 142.52C1290.42 145.765 1289.17 149.819 1289.17 154.686C1289.17 159.436 1290.3 163.373 1292.56 166.5C1294.82 169.626 1297.72 172.147 1301.25 174.057C1304.78 175.97 1308.34 177.619 1311.93 179.008C1315.52 180.285 1318.65 181.53 1321.32 182.743C1323.98 183.963 1326.07 185.409 1327.57 187.09C1329.08 188.77 1329.83 190.766 1329.83 193.081C1329.83 195.75 1328.88 197.834 1326.96 199.339C1325.05 200.847 1322.42 201.596 1319.06 201.596C1316.39 201.596 1313.73 201.076 1311.07 200.034C1308.4 198.99 1305.79 197.486 1303.25 195.516C1300.7 193.547 1298.09 191.115 1295.43 188.22L1284.48 199.339C1286.8 202.351 1289.7 205.218 1293.17 207.939C1296.65 210.662 1300.64 212.862 1305.16 214.54C1309.68 216.219 1314.71 217.062 1320.27 217.062C1328.96 217.062 1335.88 214.773 1341.04 210.198C1346.19 205.624 1348.77 199.573 1348.77 192.041C1348.77 187.175 1347.67 183.239 1345.47 180.227C1343.27 177.213 1340.31 174.666 1336.61 172.581C1332.9 170.493 1328.79 168.586 1324.27 166.847C1321.03 165.574 1318.1 164.359 1315.5 163.199C1312.89 162.043 1310.81 160.739 1309.24 159.289C1307.68 157.842 1306.9 156.19 1306.9 154.339C1306.9 152.136 1307.76 150.459 1309.5 149.297C1311.24 148.143 1313.5 147.56 1316.28 147.56C1320.21 147.56 1324.04 148.545 1327.75 150.513C1331.45 152.485 1334.58 155.033 1337.13 158.159L1347.55 147.04C1345.35 144.378 1342.69 142 1339.56 139.914C1336.43 137.832 1332.93 136.151 1329.05 134.877C1325.17 133.604 1321.03 132.966 1316.63 132.966C1311.76 132.966 1307.21 133.748 1302.99 135.31ZM1211.68 138.089C1205.43 141.51 1200.59 146.345 1197.17 152.6C1193.76 158.854 1192.05 166.211 1192.05 174.666C1192.05 183.008 1193.73 190.304 1197.09 196.559C1200.44 202.815 1205.22 207.68 1211.42 211.155C1217.62 214.627 1224.77 216.367 1232.88 216.367C1242.15 216.367 1250.08 214.54 1256.68 210.892C1263.28 207.246 1268.73 201.831 1273.02 194.647L1256.68 188.22C1254.25 192.505 1251.12 195.689 1247.3 197.775C1243.48 199.861 1238.96 200.901 1233.75 200.901C1228.88 200.901 1224.77 199.861 1221.41 197.775C1218.05 195.689 1215.48 192.624 1213.68 188.566C1212.44 185.768 1211.66 182.58 1211.33 179.008H1273.54C1273.54 178.549 1273.56 177.792 1273.63 176.752C1273.68 175.708 1273.71 174.724 1273.71 173.796C1273.71 165.227 1272.15 157.898 1269.02 151.817C1265.89 145.735 1261.35 141.075 1255.38 137.832C1249.41 134.59 1242.21 132.966 1233.75 132.966C1225.29 132.966 1217.94 134.674 1211.68 138.089ZM1213.85 159.375C1215.65 155.439 1218.2 152.425 1221.5 150.339C1224.8 148.256 1228.82 147.214 1233.58 147.214C1237.51 147.214 1240.96 148.082 1243.91 149.819C1246.87 151.558 1249.18 153.989 1250.86 157.117C1252.24 159.683 1253.05 162.637 1253.3 165.978H1211.83C1212.28 163.546 1212.95 161.344 1213.85 159.375ZM1136.27 134.704V214.628H1154.87V169.626C1154.87 165.805 1155.3 162.474 1156.17 159.635C1157.04 156.8 1158.46 154.571 1160.43 152.947C1162.4 151.325 1164.94 150.513 1168.07 150.513C1170.39 150.513 1172.33 150.861 1173.89 151.558C1175.46 152.252 1177.05 153.294 1178.67 154.686L1187.88 138.874C1186.03 136.674 1183.83 135.11 1181.28 134.18C1178.73 133.256 1176.01 132.793 1173.11 132.793C1169.06 132.793 1165.15 134.268 1161.38 137.222C1158.91 139.16 1156.74 141.523 1154.87 144.31V134.704H1136.27ZM1028.72 151.208V134.704H1015.35V106.902H996.927V134.704H983.374V151.208H996.927V214.628H1015.35V151.208H1028.72ZM899.8 134.704V214.628H918.739V165.978C918.739 162.39 919.459 159.231 920.91 156.509C922.359 153.788 924.413 151.702 927.078 150.256C929.742 148.807 932.87 148.082 936.462 148.082C941.442 148.082 945.148 149.59 947.581 152.6C950.015 155.613 951.232 160.072 951.232 165.978V214.628H970.516V163.719C970.516 154.224 968.143 146.722 963.393 141.217C958.644 135.72 951.754 132.966 942.719 132.966C937.269 132.966 932.551 134.124 928.555 136.439C924.562 138.759 921.287 142.29 918.739 147.04V134.704H899.8ZM881.732 173.927V173.796C881.732 165.227 880.17 157.898 877.041 151.817C873.913 145.735 869.368 141.075 863.402 137.832C857.437 134.59 850.225 132.966 841.77 132.966C833.312 132.966 825.957 134.674 819.703 138.089C813.448 141.51 808.609 146.345 805.194 152.6C801.779 158.854 800.068 166.211 800.068 174.666C800.068 183.008 801.745 190.304 805.108 196.559C808.465 202.815 813.245 207.68 819.441 211.155C825.637 214.627 832.791 216.367 840.903 216.367C850.167 216.367 858.104 214.54 864.705 210.892C871.307 207.246 876.751 201.831 881.038 194.647L864.705 188.22C862.272 192.505 859.144 195.689 855.324 197.775C851.498 199.861 846.983 200.901 841.77 200.901C836.905 200.901 832.791 199.861 829.435 197.775C826.071 195.689 823.495 192.624 821.701 188.566C820.46 185.768 819.676 182.58 819.348 179.008H881.559C881.559 178.549 881.585 177.792 881.647 176.752C881.702 175.758 881.729 174.817 881.732 173.927ZM821.875 159.375C823.668 155.439 826.22 152.425 829.521 150.339C832.821 148.256 836.845 147.214 841.596 147.214C845.533 147.214 848.981 148.082 851.936 149.819C854.887 151.558 857.204 153.989 858.887 157.117C860.262 159.683 861.074 162.637 861.323 165.978H819.854C820.302 163.546 820.977 161.344 821.875 159.375ZM796.942 134.704H776.44L755.591 186.307L734.738 134.704H714.064L755.591 221.927L796.942 134.704Z" fill="url(#paint0_linear_76_277)"/>
<path fill-rule="evenodd" clip-rule="evenodd" d="M0 142C0 220.425 63.5752 284 142 284C220.425 284 284 220.425 284 142C284 63.5754 220.425 0 142 0C63.5752 0 0 63.5754 0 142ZM19.113 125.914C27.054 64.4358 79.8917 18.0759 142.02 18.0759C204.127 18.0759 256.944 64.4358 264.883 125.914L260.971 126.423C253.287 66.904 202.149 22.0189 142.02 22.0189C81.8678 22.0189 30.7111 66.904 23.0262 126.423L19.113 125.914ZM130.091 35.1239H153.909L163.212 40.4994H120.789L130.091 35.1239ZM147.083 161.112C148.427 159.768 149.186 157.935 149.186 156.034V45.8666H168.58C165.14 50.9211 163.212 56.577 163.212 62.5551V130.773H172.07V75.3242C179.15 79.401 200.472 91.7168 200.472 91.7168L214.507 99.8164V116.739H200.472V102.015C200.472 99.4822 199.119 97.1447 196.928 95.8779C196.868 95.8436 196.797 95.7997 196.738 95.7654C192.016 93.0339 186.097 96.4467 186.097 101.901V167.625H200.472V136.151H191.474V130.773H223.628V136.151H214.507V156.372C214.516 162.336 216.444 167.964 219.876 173.001H172.07V136.151H163.212V152.577L142.004 173.794L120.793 152.585V136.151H111.926V156.312C111.926 162.292 113.855 167.948 117.293 173.001H97.8994V101.901C97.8994 96.4467 91.9913 93.0339 87.2614 95.7654L87.0675 95.8691C84.8777 97.1448 83.5335 99.4822 83.5335 102.015V130.773H92.5242V136.151H83.5335V173.001H64.1231C67.5606 167.948 69.4981 162.292 69.4981 156.312V136.151H60.3695V130.773H69.4981V99.8164C69.4981 99.8164 104.848 79.401 111.926 75.3242V130.773H120.793V62.5551C120.793 56.577 118.866 50.9211 115.425 45.8666H134.819V156.034C134.819 157.935 135.571 159.768 136.924 161.112C138.32 162.518 140.162 163.216 142.004 163.216C143.837 163.216 145.678 162.518 147.083 161.112ZM236.736 150.957C239.692 108.182 212.768 66.815 173.015 51.0421C222.296 63.895 252.31 121.356 234.217 169.033C235.537 163.049 236.499 157.022 236.736 150.957ZM93.8309 57.7919C99.2979 54.9076 105.106 52.7423 110.983 51.0421C105.401 53.5872 99.8372 56.0734 94.7898 59.4704C58.1063 81.4546 39.6374 127.672 49.78 169.033C34.1992 127.766 54.5385 77.514 93.8309 57.7919ZM256.009 141.99C256.009 137.597 259.57 134.036 263.962 134.036C268.355 134.036 271.916 137.597 271.916 141.99C271.916 146.382 268.355 149.942 263.962 149.942C259.57 149.942 256.009 146.382 256.009 141.99ZM12.085 141.99C12.085 137.597 15.6442 134.036 20.0378 134.036C24.4301 134.036 27.9906 137.597 27.9906 141.99C27.9906 146.382 24.4301 149.942 20.0378 149.942C15.6442 149.942 12.085 146.382 12.085 141.99ZM260.973 157.577L264.88 158.086C256.906 219.566 204.087 265.925 142.02 265.925C79.9316 265.925 27.0927 219.566 19.1157 158.086L23.025 157.577C30.7509 217.096 81.9061 261.981 142.02 261.981C202.111 261.981 253.249 217.096 260.973 157.577ZM55.0678 178.372H228.933V183.745H55.0678V178.372ZM138.169 216.445C136.292 215.748 134.741 214.867 133.406 213.732C131.948 212.409 130.903 211.049 130.193 209.544C129.411 208.021 129.005 206.34 129.005 204.568C129.005 202.23 129.673 200.112 131.048 198.1C132.35 196.122 134.147 194.537 136.369 193.404C138.511 192.27 140.942 191.696 143.577 191.696C145.939 191.696 147.978 192.052 149.804 192.782C151.642 193.458 153.275 194.503 154.774 195.957C155.983 197.208 156.9 198.565 157.522 200.005C158.168 201.43 158.499 202.966 158.499 204.568C158.499 206.948 157.86 209.073 156.545 211.069C155.167 213.048 153.362 214.6 151.169 215.693C148.951 216.827 146.485 217.402 143.851 217.402C141.898 217.402 139.988 217.081 138.169 216.445ZM57.2046 216.51C55.4272 215.893 53.858 215.001 52.5418 213.858C51.2162 212.712 50.1728 211.34 49.4411 209.781C48.7068 208.218 48.3359 206.517 48.3359 204.722C48.3359 203.635 48.4776 202.551 48.7613 201.497C49.0446 200.441 49.4579 199.444 49.9899 198.534C50.5194 197.629 51.1853 196.761 51.9661 195.956C52.8909 195.044 53.9046 194.275 54.9954 193.656C56.0824 193.041 57.251 192.558 58.4631 192.22C60.9015 191.543 63.3938 191.556 65.7267 192.177C66.8706 192.481 68.1405 192.978 69.5007 193.651C70.7375 194.278 71.1288 194.309 71.196 194.309C71.4044 194.309 71.6225 194.213 71.8594 194.019C72.1827 193.756 72.5638 193.295 72.9889 192.652C73.1448 192.415 73.4115 192.274 73.6935 192.274H74.3065C74.7676 192.274 75.1438 192.643 75.1517 193.104L75.3179 203.084C75.3217 203.311 75.2341 203.53 75.0743 203.691C74.9161 203.853 74.6981 203.943 74.4716 203.943H73.9254C73.5558 203.943 73.2286 203.703 73.119 203.35C72.7543 202.182 72.4158 201.247 72.1117 200.574C71.8166 199.918 71.4885 199.334 71.1353 198.839C70.1241 197.363 68.8426 196.193 67.3161 195.347C65.8026 194.506 64.2284 194.08 62.6378 194.08C61.838 194.08 61.029 194.229 60.2328 194.522C59.4574 194.81 58.8301 195.191 58.3689 195.652C57.5652 196.455 56.9701 197.599 56.5951 199.055C56.2011 200.591 56.0003 202.62 56.0003 205.085C56.0003 205.817 56.0335 206.556 56.0968 207.277C56.1612 208.002 56.246 208.643 56.3507 209.188C56.4551 209.735 56.5864 210.281 56.7434 210.81C56.89 211.304 57.0501 211.704 57.2172 212.004C57.5098 212.495 57.8577 212.944 58.24 213.322C58.6176 213.695 59.071 214.025 59.5888 214.306C60.1064 214.588 60.6655 214.797 61.2507 214.927C62.6378 215.238 64.2326 215.187 65.7563 214.801C66.595 214.59 67.2687 214.314 67.7606 213.984C68.6209 213.392 69.0258 212.656 69.0258 211.673V210.481C69.0258 208.158 67.9886 207.122 65.6674 207.122H63.6629C63.1969 207.122 62.8182 206.744 62.8182 206.277V205.663C62.8182 205.196 63.1969 204.818 63.6629 204.818H79.4874C79.954 204.818 80.3321 205.196 80.3321 205.663V206.277C80.3321 206.744 79.954 207.122 79.4874 207.122H78.9567C77.773 207.122 76.9088 207.388 76.3871 207.91C75.8637 208.431 75.5999 209.297 75.5999 210.481V215.911C75.5999 216.376 75.2199 216.756 74.7539 216.756H74.1418C73.9269 216.756 73.7206 216.675 73.5633 216.527C73.0407 216.039 72.7042 215.842 72.5163 215.762C72.2522 215.653 71.8966 215.598 71.4601 215.598C71.04 215.598 70.6487 215.637 70.2965 215.716C69.9336 215.799 69.3978 215.987 68.7062 216.276C68.6931 216.282 68.679 216.288 68.665 216.292C67.4164 216.739 66.444 217.034 65.6921 217.193C64.9332 217.353 64.0007 217.434 62.9184 217.434C60.8912 217.434 58.9681 217.124 57.2046 216.51ZM87.7169 193.607V192.972C87.7169 192.508 88.0982 192.126 88.5633 192.126H106.466C108.933 192.126 110.942 192.325 112.434 192.706C114.011 193.104 115.284 193.777 116.213 194.701C116.758 195.246 117.183 195.893 117.503 196.676C117.825 197.41 118.002 198.198 118.002 198.929C118.002 200.962 116.915 202.673 114.861 203.878C114.074 204.294 113.105 204.632 111.864 204.919C110.63 205.261 109.383 205.418 108.329 205.527C108.005 205.558 107.623 205.582 107.18 205.6C107.86 205.95 108.474 206.212 109.061 206.406C109.796 206.677 110.595 206.905 111.458 207.096C111.673 207.143 111.859 207.269 111.981 207.451L112.536 208.279C112.959 208.939 113.187 209.247 113.309 209.391C113.338 209.429 113.369 209.467 113.394 209.513C113.537 209.767 113.728 210.072 113.952 210.41C114.518 211.218 115.123 212.075 115.677 212.748C116.272 213.509 116.687 213.889 116.897 214.058C117.466 214.422 118.331 214.607 119.482 214.607H120.154C120.619 214.607 120.999 214.984 120.999 215.452V216.122C120.999 216.59 120.619 216.966 120.154 216.966H111.475C111.2 216.966 110.942 216.836 110.787 216.612L103.032 205.65H99.1104V211.273C99.1104 212.426 99.3848 213.289 99.9257 213.83C100.437 214.337 101.321 214.607 102.484 214.607H103.156C103.622 214.607 104.001 214.984 104.001 215.452V216.122C104.001 216.59 103.622 216.966 103.156 216.966H88.5633C88.0982 216.966 87.7169 216.59 87.7169 216.122V215.452C87.7169 214.984 88.0982 214.607 88.5633 214.607H89.1935C90.4197 214.607 91.251 214.358 91.7336 213.846L91.7671 213.813C92.2785 213.331 92.5298 212.499 92.5298 211.273V197.788C92.5298 196.562 92.2785 195.728 91.7671 195.246C91.7591 195.235 91.7464 195.222 91.7336 195.213C91.251 194.701 90.4197 194.451 89.1935 194.451H88.5633C88.0982 194.451 87.7169 194.071 87.7169 193.607ZM207.326 193.607V192.974C207.326 192.508 207.704 192.129 208.17 192.129H221.974C222.732 192.129 223.534 192.161 224.384 192.196L224.688 192.209C225.71 192.29 226.592 192.37 227.345 192.448C228.045 192.518 228.778 192.603 229.381 192.742C231.435 193.189 232.946 193.953 233.986 195.078C235.107 196.247 235.675 197.689 235.675 199.363C235.675 200.539 235.395 201.602 234.844 202.519C234.294 203.436 233.509 204.209 232.51 204.817C231.529 205.413 230.373 205.848 228.971 206.145C227.726 206.447 226.216 206.597 224.379 206.597H218.876V211.273C218.876 213.605 219.916 214.647 222.25 214.647H223.393C223.86 214.647 224.239 215.025 224.239 215.492V216.122C224.239 216.59 223.86 216.969 223.393 216.969H208.132C207.665 216.969 207.287 216.59 207.287 216.122V215.492C207.287 215.025 207.665 214.647 208.132 214.647H208.959C211.266 214.647 212.296 213.605 212.296 211.273V197.785C212.296 195.449 211.298 194.451 208.959 194.451H208.17C207.704 194.451 207.326 194.071 207.326 193.607ZM189.456 214.569C190.539 214.208 191.403 213.717 192.025 213.105C193.161 211.941 193.741 210.236 193.741 208.048V199.772C193.741 197.417 193.116 195.888 191.828 195.097C191.461 194.869 191.082 194.709 190.692 194.621C190.264 194.523 189.613 194.463 188.757 194.443C188.298 194.432 187.932 194.057 187.932 193.597V192.984C187.932 192.518 188.31 192.14 188.777 192.14H199.999C200.467 192.14 200.845 192.518 200.845 192.984V193.597C200.845 194.039 200.506 194.407 200.066 194.441C199.441 194.491 198.949 194.573 198.605 194.685C198.282 194.789 197.937 194.972 197.58 195.228C197.085 195.602 196.702 196.108 196.426 196.763C196.14 197.445 195.996 198.273 195.996 199.225V208.444C195.996 211.12 195.236 213.218 193.737 214.678L193.732 214.682C192.911 215.467 192.016 216.041 191.071 216.389C189.226 217.082 187.004 217.434 184.474 217.434C182.617 217.434 180.901 217.249 179.376 216.881C177.817 216.506 176.499 215.958 175.459 215.253C173.411 213.841 172.374 211.802 172.374 209.19V197.802C172.374 195.479 171.337 194.443 169.014 194.443H168.07C167.605 194.443 167.225 194.065 167.225 193.597V192.984C167.225 192.518 167.605 192.14 168.07 192.14H184.109C184.575 192.14 184.956 192.518 184.956 192.984V193.597C184.956 194.065 184.575 194.443 184.109 194.443H182.273C181.098 194.443 180.235 194.708 179.707 195.232C179.179 195.754 178.913 196.619 178.913 197.802V209.538C178.913 210.701 179.179 211.704 179.707 212.524C180.24 213.349 180.993 213.974 182.004 214.427C183.049 214.894 184.326 215.132 185.797 215.132C187.104 215.132 188.333 214.943 189.456 214.569ZM181.839 228.433C186.128 226.815 190.241 224.764 194.349 222.626C190.722 225.518 186.74 227.94 182.649 230.188C153.588 245.558 115.702 242.907 89.6491 222.626C105.789 231.505 124.06 236.13 142.318 236.13C155.787 236.13 169.245 233.615 181.839 228.433ZM150.975 204.368V204.302C150.969 202.905 150.791 201.541 150.45 200.248C150.121 199.012 149.651 197.914 149.055 196.98C148.408 196.033 147.71 195.34 146.937 194.888C146.921 194.879 146.908 194.87 146.895 194.862C146.531 194.621 146.066 194.407 145.479 194.211C145.022 194.057 144.534 193.982 144.033 193.978H144.009H143.964C143.027 193.983 142.216 194.132 141.489 194.427C140.664 194.753 140.03 195.162 139.54 195.682C138.948 196.312 138.436 197.055 137.985 197.966C137.543 198.84 137.209 199.846 136.991 200.95C136.767 202.069 136.652 203.291 136.652 204.568C136.652 206.162 136.83 207.654 137.176 209.011C137.556 210.376 138.034 211.447 138.669 212.367C139.299 213.239 140.072 213.945 140.901 214.393C141.734 214.856 142.68 215.082 143.814 215.082C145.285 215.082 146.506 214.688 147.554 213.876C148.649 213.002 149.486 211.787 150.037 210.276C150.041 210.271 150.041 210.263 150.045 210.257C150.661 208.66 150.975 206.682 150.975 204.368ZM110.828 198.896V198.848C110.828 196.963 110.22 194.451 104.968 194.451H99.1104V203.329H104.851C106.271 203.329 107.462 203.16 108.388 202.826C109.226 202.505 109.822 202.04 110.198 201.409C110.606 200.766 110.821 199.903 110.828 198.896ZM218.876 204.274H222.644C224.71 204.274 226.233 203.867 227.174 203.065C228.055 202.278 228.503 201.019 228.503 199.323C228.503 197.323 227.9 195.985 226.663 195.236C226.194 194.968 225.641 194.766 224.993 194.629C224.3 194.514 223.421 194.451 222.485 194.451H218.876V204.274Z" fill="url(#paint1_linear_76_277)"/>
<defs>
<linearGradient id="paint0_linear_76_277" x1="305" y1="63" x2="1349" y2="222" gradientUnits="userSpaceOnUse">
<stop stop-color="#AE8625"/>
<stop offset="0.36" stop-color="#F7EF8A"/>
<stop offset="0.635" stop-color="#D2AC47"/>
<stop offset="1" stop-color="#EDC967"/>
</linearGradient>
<linearGradient id="paint1_linear_76_277" x1="8.47585e-06" y1="0.000110183" x2="284.395" y2="284.394" gradientUnits="userSpaceOnUse">
<stop offset="0.06" stop-color="#AE8625"/>
<stop offset="0.33" stop-color="#F7EF8A"/>
<stop offset="0.605" stop-color="#D2AC47"/>
<stop offset="0.92" stop-color="#EDC967"/>
</linearGradient>
</defs>
</svg>
