<svg width="356" height="356" viewBox="0 0 356 356" fill="none" xmlns="http://www.w3.org/2000/svg">
<path fill-rule="evenodd" clip-rule="evenodd" d="M0 178C0 276.307 79.6929 356 178 356C276.307 356 356 276.307 356 178C356 79.6931 276.307 0 178 0C79.6929 0 0 79.6931 0 178ZM23.9585 157.836C33.9128 80.7717 100.146 22.6585 178.025 22.6585C255.877 22.6585 322.085 80.7717 332.037 157.836L327.133 158.474C317.501 83.8656 253.398 27.6012 178.025 27.6012C102.623 27.6012 38.497 83.8656 28.8638 158.474L23.9585 157.836ZM163.072 44.0285H192.928L204.59 50.7668H151.411L163.072 44.0285ZM184.372 201.957C186.057 200.272 187.008 197.975 187.008 195.592V57.4948H211.318C207.007 63.8307 204.59 70.9205 204.59 78.4142V163.927H215.694V94.4205C224.568 99.5308 251.296 114.969 251.296 114.969L268.889 125.122V146.335H251.296V127.878C251.296 124.703 249.6 121.773 246.854 120.185C246.778 120.142 246.689 120.087 246.615 120.044C240.696 116.62 233.277 120.898 233.277 127.735V210.121H251.296V170.668H240.017V163.927H280.323V170.668H268.889V196.016C268.9 203.491 271.317 210.546 275.619 216.86H215.694V170.668H204.59V191.258L178.005 217.855L151.416 191.269V170.668H140.301V195.94C140.301 203.436 142.72 210.526 147.029 216.86H122.719V127.735C122.719 120.898 115.313 116.62 109.384 120.044L109.141 120.174C106.396 121.773 104.711 124.703 104.711 127.878V163.927H115.981V170.668H104.711V216.86H80.3797C84.6886 210.526 87.1173 203.436 87.1173 195.94V170.668H75.6744V163.927H87.1173V125.122C87.1173 125.122 131.429 99.5308 140.301 94.4205V163.927H151.416V78.4142C151.416 70.9205 149.001 63.8307 144.688 57.4948H168.998V195.592C168.998 197.975 169.941 200.272 171.637 201.957C173.387 203.72 175.696 204.595 178.005 204.595C180.303 204.595 182.61 203.72 184.372 201.957ZM296.753 189.228C300.459 135.609 266.709 83.754 216.878 63.9823C278.653 80.0937 316.276 152.122 293.596 211.887C295.25 204.385 296.456 196.831 296.753 189.228ZM117.619 72.4434C124.472 68.8279 131.753 66.1136 139.12 63.9823C132.123 67.1727 125.148 70.2892 118.821 74.5474C72.8375 102.105 49.6863 160.04 62.4003 211.887C42.8694 160.157 68.3651 97.1655 117.619 72.4434ZM320.913 177.987C320.913 172.481 325.376 168.017 330.882 168.017C336.389 168.017 340.853 172.481 340.853 177.987C340.853 183.493 336.389 187.956 330.882 187.956C325.376 187.956 320.913 183.493 320.913 177.987ZM15.1488 177.987C15.1488 172.481 19.6103 168.017 25.1178 168.017C30.6236 168.017 35.0868 172.481 35.0868 177.987C35.0868 183.493 30.6236 187.956 25.1178 187.956C19.6103 187.956 15.1488 183.493 15.1488 177.987ZM327.135 197.526L332.033 198.164C322.037 275.23 255.827 333.343 178.025 333.343C100.196 333.343 33.9613 275.23 23.9619 198.164L28.8623 197.526C38.5469 272.134 102.671 328.399 178.025 328.399C253.35 328.399 317.453 272.134 327.135 197.526ZM69.0287 223.593H286.972V230.328H69.0287V223.593ZM173.198 271.319C170.845 270.445 168.901 269.34 167.227 267.917C165.399 266.259 164.09 264.554 163.2 262.668C162.22 260.759 161.711 258.651 161.711 256.43C161.711 253.5 162.548 250.845 164.271 248.323C165.903 245.843 168.156 243.856 170.942 242.436C173.627 241.015 176.674 240.295 179.977 240.295C182.938 240.295 185.494 240.741 187.782 241.656C190.086 242.504 192.133 243.813 194.013 245.636C195.528 247.205 196.678 248.906 197.457 250.711C198.267 252.497 198.682 254.422 198.682 256.43C198.682 259.414 197.881 262.078 196.233 264.58C194.505 267.06 192.243 269.006 189.493 270.376C186.713 271.797 183.622 272.518 180.32 272.518C177.872 272.518 175.478 272.115 173.198 271.319ZM71.7072 271.4C69.4792 270.627 67.5122 269.508 65.8622 268.076C64.2006 266.639 62.8927 264.919 61.9755 262.965C61.055 261.006 60.5901 258.874 60.5901 256.623C60.5901 255.261 60.7677 253.902 61.1233 252.581C61.4784 251.257 61.9965 250.007 62.6634 248.866C63.3271 247.732 64.1619 246.644 65.1406 245.635C66.2999 244.492 67.5705 243.528 68.9379 242.752C70.3005 241.981 71.7653 241.375 73.2847 240.952C76.3413 240.103 79.4655 240.12 82.3898 240.898C83.8237 241.279 85.4155 241.902 87.1206 242.746C88.671 243.531 89.1615 243.57 89.2457 243.57C89.5069 243.57 89.7803 243.45 90.0773 243.207C90.4825 242.877 90.9602 242.299 91.4931 241.493C91.6886 241.196 92.0229 241.019 92.3764 241.019H93.1448C93.7228 241.019 94.1943 241.482 94.2043 242.06L94.4126 254.57C94.4174 254.855 94.3075 255.129 94.1072 255.331C93.9089 255.534 93.6357 255.647 93.3517 255.647H92.6671C92.2038 255.647 91.7936 255.346 91.6562 254.903C91.1991 253.44 90.7747 252.268 90.3936 251.424C90.0236 250.602 89.6124 249.87 89.1696 249.249C87.9021 247.399 86.2956 245.932 84.3822 244.871C82.485 243.817 80.5117 243.283 78.5178 243.283C77.5153 243.283 76.5012 243.47 75.5031 243.838C74.5311 244.199 73.7448 244.676 73.1667 245.254C72.1592 246.261 71.4132 247.695 70.9432 249.52C70.4493 251.445 70.1976 253.988 70.1976 257.078C70.1976 257.996 70.2392 258.922 70.3185 259.826C70.3993 260.735 70.5056 261.539 70.6368 262.221C70.7676 262.907 70.9322 263.592 71.1291 264.255C71.3128 264.874 71.5135 265.376 71.723 265.752C72.0897 266.367 72.5259 266.93 73.0051 267.404C73.4784 267.871 74.0468 268.285 74.6958 268.637C75.3447 268.991 76.0455 269.252 76.779 269.416C78.5178 269.806 80.5169 269.741 82.4269 269.257C83.4782 268.993 84.3227 268.647 84.9393 268.233C86.0178 267.492 86.5253 266.569 86.5253 265.337V263.842C86.5253 260.93 85.2252 259.632 82.3155 259.632H79.8028C79.2186 259.632 78.7439 259.158 78.7439 258.573V257.803C78.7439 257.218 79.2186 256.744 79.8028 256.744H99.6391C100.224 256.744 100.698 257.218 100.698 257.803V258.573C100.698 259.158 100.224 259.632 99.6391 259.632H98.9739C97.4901 259.632 96.4068 259.965 95.7528 260.619C95.0968 261.273 94.7661 262.358 94.7661 263.842V270.649C94.7661 271.232 94.2898 271.708 93.7056 271.708H92.9383C92.6689 271.708 92.4103 271.607 92.2132 271.421C91.5581 270.809 91.1362 270.562 90.9007 270.462C90.5696 270.326 90.1239 270.257 89.5767 270.257C89.0502 270.257 88.5596 270.305 88.1182 270.405C87.6633 270.509 86.9916 270.744 86.1247 271.106C86.1082 271.114 86.0906 271.121 86.073 271.127C84.5079 271.687 83.289 272.057 82.3464 272.256C81.3951 272.456 80.2262 272.558 78.8695 272.558C76.3284 272.558 73.9178 272.169 71.7072 271.4ZM109.955 242.69V241.895C109.955 241.313 110.433 240.834 111.016 240.834H133.457C136.55 240.834 139.068 241.084 140.939 241.561C142.915 242.06 144.511 242.903 145.676 244.062C146.359 244.745 146.891 245.556 147.292 246.538C147.696 247.458 147.918 248.445 147.918 249.362C147.918 251.91 146.556 254.055 143.981 255.565C142.994 256.087 141.78 256.51 140.224 256.87C138.677 257.299 137.114 257.496 135.793 257.633C135.386 257.671 134.908 257.701 134.353 257.724C135.205 258.163 135.974 258.491 136.71 258.734C137.632 259.074 138.633 259.36 139.715 259.599C139.985 259.658 140.218 259.816 140.371 260.044L141.066 261.082C141.596 261.909 141.882 262.295 142.035 262.476C142.072 262.524 142.111 262.571 142.142 262.629C142.321 262.947 142.56 263.33 142.841 263.753C143.551 264.766 144.309 265.841 145.003 266.684C145.75 267.638 146.27 268.114 146.533 268.326C147.246 268.783 148.331 269.015 149.773 269.015H150.616C151.198 269.015 151.675 269.487 151.675 270.074V270.913C151.675 271.5 151.198 271.972 150.616 271.972H139.736C139.392 271.972 139.068 271.808 138.874 271.528L129.153 257.787H124.237V264.835C124.237 266.281 124.581 267.362 125.259 268.04C125.9 268.676 127.008 269.015 128.466 269.015H129.308C129.892 269.015 130.367 269.487 130.367 270.074V270.913C130.367 271.5 129.892 271.972 129.308 271.972H111.016C110.433 271.972 109.955 271.5 109.955 270.913V270.074C109.955 269.487 110.433 269.015 111.016 269.015H111.806C113.343 269.015 114.385 268.702 114.99 268.061L115.032 268.019C115.673 267.415 115.988 266.372 115.988 264.835V247.931C115.988 246.394 115.673 245.349 115.032 244.745C115.022 244.731 115.006 244.715 114.99 244.703C114.385 244.062 113.343 243.749 111.806 243.749H111.016C110.433 243.749 109.955 243.272 109.955 242.69ZM259.887 242.69V241.897C259.887 241.313 260.361 240.838 260.946 240.838H278.249C279.199 240.838 280.205 240.878 281.27 240.922L281.651 240.938C282.932 241.039 284.038 241.14 284.982 241.238C285.859 241.326 286.778 241.432 287.534 241.606C290.109 242.167 292.003 243.124 293.306 244.534C294.712 246 295.423 247.807 295.423 249.906C295.423 251.38 295.072 252.712 294.382 253.862C293.693 255.011 292.709 255.98 291.456 256.742C290.227 257.49 288.777 258.035 287.02 258.407C285.459 258.786 283.566 258.974 281.264 258.974H274.366V264.835C274.366 267.759 275.669 269.064 278.595 269.064H280.028C280.613 269.064 281.088 269.538 281.088 270.124V270.914C281.088 271.5 280.613 271.975 280.028 271.975H260.898C260.312 271.975 259.839 271.5 259.839 270.914V270.124C259.839 269.538 260.312 269.064 260.898 269.064H261.935C264.827 269.064 266.117 267.759 266.117 264.835V247.928C266.117 244.999 264.866 243.749 261.935 243.749H260.946C260.361 243.749 259.887 243.272 259.887 242.69ZM237.487 268.967C238.845 268.514 239.928 267.899 240.707 267.132C242.131 265.673 242.859 263.535 242.859 260.793V250.419C242.859 247.466 242.075 245.55 240.46 244.558C240.001 244.272 239.525 244.072 239.037 243.962C238.5 243.839 237.684 243.764 236.611 243.738C236.036 243.725 235.577 243.255 235.577 242.678V241.91C235.577 241.326 236.05 240.851 236.636 240.851H250.703C251.289 240.851 251.764 241.326 251.764 241.91V242.678C251.764 243.232 251.338 243.693 250.787 243.736C250.003 243.798 249.387 243.901 248.955 244.042C248.551 244.172 248.118 244.401 247.671 244.722C247.05 245.191 246.57 245.826 246.224 246.646C245.866 247.502 245.685 248.54 245.685 249.733V261.289C245.685 264.644 244.732 267.273 242.853 269.104L242.847 269.109C241.818 270.093 240.696 270.812 239.512 271.248C237.199 272.117 234.413 272.558 231.242 272.558C228.914 272.558 226.763 272.326 224.852 271.865C222.897 271.395 221.245 270.708 219.941 269.824C217.374 268.054 216.074 265.498 216.074 262.224V247.949C216.074 245.037 214.775 243.739 211.862 243.739H210.679C210.096 243.739 209.62 243.265 209.62 242.678V241.91C209.62 241.326 210.096 240.851 210.679 240.851H230.785C231.369 240.851 231.846 241.326 231.846 241.91V242.678C231.846 243.265 231.369 243.739 230.785 243.739H228.483C227.01 243.739 225.928 244.07 225.266 244.728C224.605 245.382 224.271 246.466 224.271 247.949V262.66C224.271 264.118 224.605 265.376 225.266 266.403C225.935 267.437 226.878 268.221 228.146 268.789C229.456 269.374 231.056 269.672 232.901 269.672C234.539 269.672 236.079 269.435 237.487 268.967ZM227.939 286.345C233.315 284.317 238.471 281.747 243.621 279.066C239.074 282.691 234.082 285.728 228.955 288.546C192.526 307.812 145.035 304.489 112.377 279.066C132.609 290.196 155.512 295.994 178.399 295.994C195.282 295.994 212.152 292.841 227.939 286.345ZM189.25 256.18V256.097C189.243 254.346 189.02 252.636 188.592 251.015C188.18 249.466 187.591 248.089 186.843 246.918C186.033 245.732 185.158 244.863 184.189 244.296C184.168 244.285 184.152 244.274 184.136 244.264C183.68 243.962 183.097 243.693 182.361 243.447C181.788 243.255 181.177 243.16 180.548 243.156H180.518H180.462C179.287 243.162 178.271 243.348 177.359 243.718C176.325 244.127 175.531 244.64 174.916 245.291C174.174 246.081 173.532 247.013 172.967 248.154C172.413 249.25 171.995 250.511 171.721 251.895C171.44 253.298 171.296 254.83 171.296 256.43C171.296 258.428 171.519 260.299 171.953 262C172.429 263.711 173.029 265.053 173.824 266.207C174.614 267.299 175.583 268.184 176.623 268.746C177.666 269.327 178.852 269.61 180.274 269.61C182.118 269.61 183.648 269.116 184.962 268.098C186.335 267.002 187.384 265.48 188.074 263.585C188.079 263.579 188.079 263.569 188.084 263.562C188.857 261.56 189.25 259.08 189.25 256.18ZM138.925 249.32V249.26C138.925 246.897 138.163 243.749 131.58 243.749H124.237V254.877H131.433C133.213 254.877 134.706 254.665 135.867 254.247C136.917 253.844 137.664 253.261 138.136 252.471C138.647 251.664 138.917 250.583 138.925 249.32ZM274.366 256.062H279.089C281.679 256.062 283.588 255.552 284.768 254.546C285.872 253.56 286.433 251.981 286.433 249.856C286.433 247.348 285.677 245.671 284.127 244.732C283.539 244.396 282.846 244.143 282.034 243.972C281.165 243.828 280.063 243.749 278.89 243.749H274.366V256.062Z" fill="url(#paint0_linear_93_176)"/>
<defs>
<linearGradient id="paint0_linear_93_176" x1="1.50234e-05" y1="0.000133718" x2="356.495" y2="356.494" gradientUnits="userSpaceOnUse">
<stop offset="0.06" stop-color="#AE8625"/>
<stop offset="0.33" stop-color="#F7EF8A"/>
<stop offset="0.605" stop-color="#D2AC47"/>
<stop offset="0.92" stop-color="#EDC967"/>
</linearGradient>
</defs>
</svg>
