<svg width="1350" height="275" viewBox="0 0 1350 275" fill="none" xmlns="http://www.w3.org/2000/svg">
<path fill-rule="evenodd" clip-rule="evenodd" d="M660.96 136.337H674.753V57.6916H660.96V136.337ZM640.559 136.337H654.352V71.4841H640.559V136.337ZM633.953 85.2775H620.159V136.337H633.953V85.2775ZM350.334 185.179H388.257L399.976 209.279H433.168L369.239 80.4124L353.22 113.025L369.239 146.072L377.31 162.669H361.301H328.688L317.578 185.179L305.599 209.279H338.646L350.334 185.179ZM587 89.7523C578.774 92.7834 571.56 97.1108 565.497 102.596C559.292 108.223 554.676 114.862 551.212 122.655C547.893 130.447 546.305 139.105 546.305 148.631C546.305 158.297 547.893 166.958 551.212 174.895C554.531 182.832 559.004 189.612 564.921 195.386C570.837 201.013 577.765 205.487 585.845 208.519C593.926 211.549 602.875 213.135 612.542 213.135C622.789 213.135 632.023 211.26 639.962 207.652C647.899 204.045 654.536 198.992 659.876 192.499C665.215 186.005 669.11 178.646 671.565 170.131C674.163 161.762 675.173 152.671 674.594 143.002H613.265V165.513H645.445C644.435 168.544 642.992 171.574 641.26 174.173C639.382 176.916 637.219 179.367 634.766 181.388C632.169 183.407 629.139 184.85 625.529 186.005C621.922 187.16 618.025 187.593 613.552 187.593C606.483 187.593 600.133 186.005 594.649 182.832C589.166 179.656 584.835 175.182 581.662 169.409C578.487 163.494 576.9 156.711 576.9 148.631C576.9 140.548 578.487 133.767 581.805 128.138C585.124 122.51 589.597 118.326 595.08 115.294C600.565 112.265 606.77 110.82 613.552 110.82V85.2794C604.029 85.2794 595.08 86.8661 587 89.7523ZM509.794 88.0605L490.892 127.166L507.053 160.502L542.842 88.0605H509.794ZM415.272 88.0605L479.201 216.927L495.365 184.315L479.201 151.268L448.464 88.0605H415.272ZM1113.3 129.704H1094.53V182.561H1094.51C1094.51 189.999 1087.12 196.071 1077.94 196.071C1068.75 196.071 1061.37 189.999 1061.37 182.561H1061.34V129.704H1042.58V182.561H1042.61C1042.61 198.477 1058.41 211.384 1077.94 211.384C1097.46 211.384 1113.32 198.477 1113.32 182.561H1113.3V129.704ZM1303.99 130.31C1299.76 131.876 1296.4 134.282 1293.91 137.52C1291.42 140.765 1290.17 144.819 1290.17 149.687C1290.17 154.436 1291.3 158.373 1293.56 161.501C1295.82 164.627 1298.72 167.147 1302.25 169.058C1305.78 170.97 1309.34 172.619 1312.93 174.008C1316.52 175.285 1319.65 176.53 1322.32 177.744C1324.98 178.963 1327.07 180.409 1328.57 182.09C1330.08 183.77 1330.83 185.766 1330.83 188.082C1330.83 190.75 1329.88 192.834 1327.96 194.339C1326.05 195.847 1323.42 196.597 1320.06 196.597C1317.39 196.597 1314.73 196.076 1312.07 195.034C1309.4 193.991 1306.79 192.486 1304.25 190.516C1301.7 188.547 1299.09 186.115 1296.43 183.22L1285.48 194.339C1287.8 197.351 1290.7 200.218 1294.17 202.94C1297.65 205.663 1301.64 207.862 1306.16 209.54C1310.68 211.22 1315.71 212.062 1321.27 212.062C1329.96 212.062 1336.88 209.773 1342.04 205.199C1347.19 200.624 1349.77 194.573 1349.77 187.041C1349.77 182.175 1348.67 178.239 1346.47 175.227C1344.27 172.214 1341.31 169.667 1337.61 167.581C1333.9 165.494 1329.79 163.587 1325.27 161.847C1322.03 160.574 1319.1 159.359 1316.5 158.199C1313.89 157.044 1311.81 155.739 1310.24 154.289C1308.68 152.842 1307.9 151.191 1307.9 149.34C1307.9 147.136 1308.76 145.459 1310.5 144.298C1312.24 143.144 1314.5 142.56 1317.28 142.56C1321.21 142.56 1325.04 143.545 1328.75 145.513C1332.45 147.485 1335.58 150.033 1338.13 153.159L1348.55 142.04C1346.35 139.378 1343.69 137 1340.56 134.914C1337.43 132.832 1333.93 131.151 1330.05 129.878C1326.17 128.604 1322.03 127.967 1317.63 127.967C1312.76 127.967 1308.21 128.748 1303.99 130.31ZM1212.68 133.089C1206.43 136.51 1201.59 141.345 1198.17 147.601C1194.76 153.854 1193.05 161.212 1193.05 169.667C1193.05 178.008 1194.73 185.304 1198.09 191.56C1201.44 197.815 1206.22 202.68 1212.42 206.155C1218.62 209.628 1225.77 211.367 1233.88 211.367C1243.15 211.367 1251.08 209.54 1257.68 205.892C1264.28 202.246 1269.73 196.831 1274.02 189.647L1257.68 183.22C1255.25 187.505 1252.12 190.689 1248.3 192.775C1244.48 194.861 1239.96 195.901 1234.75 195.901C1229.88 195.901 1225.77 194.861 1222.41 192.775C1219.05 190.689 1216.48 187.625 1214.68 183.567C1213.44 180.768 1212.66 177.581 1212.33 174.008H1274.54C1274.54 173.549 1274.56 172.793 1274.63 171.753C1274.68 170.709 1274.71 169.725 1274.71 168.796C1274.71 160.227 1273.15 152.898 1270.02 146.818C1266.89 140.735 1262.35 136.075 1256.38 132.832C1250.41 129.591 1243.21 127.967 1234.75 127.967C1226.29 127.967 1218.94 129.675 1212.68 133.089ZM1214.85 154.375C1216.65 150.439 1219.2 147.426 1222.5 145.34C1225.8 143.256 1229.82 142.214 1234.58 142.214C1238.51 142.214 1241.96 143.082 1244.91 144.819C1247.87 146.559 1250.18 148.99 1251.86 152.117C1253.24 154.683 1254.05 157.637 1254.3 160.979H1212.83C1213.28 158.546 1213.95 156.345 1214.85 154.375ZM1137.27 129.704V209.628H1155.87V164.627C1155.87 160.805 1156.3 157.474 1157.17 154.635C1158.04 151.8 1159.46 149.571 1161.43 147.948C1163.4 146.326 1165.94 145.513 1169.07 145.513C1171.39 145.513 1173.33 145.862 1174.89 146.559C1176.46 147.252 1178.05 148.294 1179.67 149.687L1188.88 133.874C1187.03 131.675 1184.83 130.11 1182.28 129.18C1179.73 128.256 1177.01 127.793 1174.11 127.793C1170.06 127.793 1166.15 129.268 1162.38 132.223C1159.91 134.16 1157.74 136.524 1155.87 139.31V129.704H1137.27ZM1029.72 146.208V129.704H1016.35V101.902H997.927V129.704H984.374V146.208H997.927V209.628H1016.35V146.208H1029.72ZM900.8 129.704V209.628H919.739V160.979C919.739 157.391 920.459 154.231 921.91 151.509C923.359 148.788 925.413 146.703 928.078 145.256C930.742 143.807 933.87 143.082 937.462 143.082C942.442 143.082 946.148 144.59 948.581 147.601C951.015 150.613 952.232 155.072 952.232 160.979V209.628H971.516V158.719C971.516 149.224 969.143 141.722 964.393 136.217C959.644 130.72 952.754 127.967 943.719 127.967C938.269 127.967 933.551 129.124 929.555 131.44C925.562 133.759 922.287 137.291 919.739 142.04V129.704H900.8ZM882.732 168.928V168.796C882.732 160.227 881.17 152.898 878.041 146.818C874.913 140.735 870.368 136.075 864.402 132.832C858.437 129.591 851.225 127.967 842.77 127.967C834.312 127.967 826.957 129.675 820.703 133.089C814.448 136.51 809.609 141.345 806.194 147.601C802.779 153.854 801.068 161.212 801.068 169.667C801.068 178.008 802.745 185.304 806.108 191.56C809.465 197.815 814.245 202.68 820.441 206.155C826.637 209.628 833.791 211.367 841.903 211.367C851.167 211.367 859.104 209.54 865.705 205.892C872.307 202.246 877.751 196.831 882.038 189.647L865.705 183.22C863.272 187.505 860.144 190.689 856.324 192.775C852.498 194.861 847.983 195.901 842.77 195.901C837.905 195.901 833.791 194.861 830.435 192.775C827.071 190.689 824.495 187.625 822.701 183.567C821.46 180.768 820.676 177.581 820.348 174.008H882.559C882.559 173.549 882.585 172.793 882.647 171.753C882.702 170.758 882.729 169.817 882.732 168.928ZM822.875 154.375C824.668 150.439 827.22 147.426 830.521 145.34C833.821 143.256 837.845 142.214 842.596 142.214C846.533 142.214 849.981 143.082 852.936 144.819C855.887 146.559 858.204 148.99 859.887 152.117C861.262 154.683 862.074 157.637 862.323 160.979H820.854C821.302 158.546 821.977 156.345 822.875 154.375ZM797.942 129.704H777.44L756.591 181.307L735.738 129.704H715.064L756.591 216.927L797.942 129.704Z" fill="#A5782D"/>
<path fill-rule="evenodd" clip-rule="evenodd" d="M0 137.309C0 213.143 61.4752 274.618 137.31 274.618C213.143 274.618 274.619 213.143 274.619 137.309C274.619 61.4752 213.143 -9.15527e-05 137.31 -9.15527e-05C61.4752 -9.15527e-05 0 61.4752 0 137.309ZM18.4816 121.755C26.1604 62.3072 77.2529 17.4787 137.328 17.4787C197.383 17.4787 248.457 62.3072 256.134 121.755L252.351 122.247C244.921 64.6939 195.472 21.2915 137.328 21.2915C79.1634 21.2915 29.6966 64.6939 22.2656 122.247L18.4816 121.755ZM125.794 33.9635H148.825L157.821 39.1614H116.799L125.794 33.9635ZM142.224 155.789C143.525 154.49 144.258 152.718 144.258 150.879V44.3514H163.011C159.686 49.2389 157.821 54.708 157.821 60.4887V126.453H166.387V72.8359C173.232 76.778 193.85 88.6867 193.85 88.6867L207.421 96.5188V112.883H193.85V98.645C193.85 96.1962 192.542 93.9353 190.424 92.711C190.365 92.6773 190.296 92.635 190.239 92.6016C185.673 89.9608 179.95 93.2604 179.95 98.5351V162.087H193.85V131.653H185.15V126.453H216.241V131.653H207.421V151.207C207.43 156.973 209.295 162.416 212.613 167.286H166.387V131.653H157.821V147.536L137.313 168.053L116.803 147.545V131.653H108.229V151.148C108.229 156.93 110.094 162.4 113.418 167.286H94.6655V98.5351C94.6655 93.2604 88.9523 89.9608 84.3786 92.6016L84.1918 92.7025C82.0743 93.9353 80.7741 96.1962 80.7741 98.645V126.453H89.4679V131.653H80.7741V167.286H62.005C65.3289 162.4 67.2024 156.93 67.2024 151.148V131.653H58.3753V126.453H67.2024V96.5188C67.2024 96.5188 101.384 76.778 108.229 72.8359V126.453H116.803V60.4887C116.803 54.708 114.94 49.2389 111.613 44.3514H130.365V150.879C130.365 152.718 131.093 154.49 132.401 155.789C133.751 157.15 135.532 157.824 137.313 157.824C139.086 157.824 140.866 157.15 142.224 155.789ZM228.916 145.971C231.774 104.609 205.74 64.6078 167.3 49.3559C214.953 61.7842 243.976 117.347 226.48 163.449C227.756 157.663 228.687 151.836 228.916 145.971ZM90.7311 55.8827C96.0182 53.0937 101.635 51 107.318 49.3559C101.92 51.817 96.539 54.221 91.6588 57.5058C56.1869 78.7634 38.3281 123.455 48.1357 163.449C33.0695 123.545 52.7369 74.9534 90.7311 55.8827ZM247.553 137.299C247.553 133.052 250.996 129.608 255.243 129.608C259.491 129.608 262.934 133.052 262.934 137.299C262.934 141.547 259.491 144.989 255.243 144.989C250.996 144.989 247.553 141.547 247.553 137.299ZM11.6858 137.299C11.6858 133.052 15.1274 129.608 19.3759 129.608C23.6231 129.608 27.066 133.052 27.066 137.299C27.066 141.547 23.6231 144.989 19.3759 144.989C15.1274 144.989 11.6858 141.547 11.6858 137.299ZM252.352 152.371L256.131 152.864C248.42 212.312 197.345 257.141 137.328 257.141C77.2914 257.141 26.1978 212.312 18.4842 152.864L22.2644 152.371C29.7351 209.924 79.2009 253.327 137.328 253.327C195.434 253.327 244.884 209.924 252.352 152.371ZM53.2488 172.48H221.37V177.675H53.2488V172.48ZM133.605 209.296C131.79 208.622 130.291 207.769 128.999 206.671C127.589 205.392 126.579 204.077 125.893 202.622C125.137 201.15 124.744 199.523 124.744 197.81C124.744 195.55 125.39 193.502 126.719 191.556C127.978 189.643 129.715 188.11 131.865 187.015C133.936 185.919 136.287 185.364 138.834 185.364C141.119 185.364 143.09 185.708 144.855 186.414C146.632 187.068 148.212 188.078 149.662 189.484C150.831 190.694 151.718 192.006 152.318 193.399C152.944 194.776 153.264 196.261 153.264 197.81C153.264 200.112 152.646 202.167 151.374 204.097C150.041 206.01 148.297 207.511 146.175 208.568C144.031 209.664 141.646 210.22 139.099 210.22C137.211 210.22 135.364 209.91 133.605 209.296ZM55.315 209.358C53.5963 208.761 52.079 207.898 50.8062 206.794C49.5244 205.685 48.5155 204.358 47.808 202.851C47.0979 201.34 46.7393 199.695 46.7393 197.959C46.7393 196.909 46.8763 195.86 47.1506 194.841C47.4245 193.82 47.8242 192.856 48.3386 191.975C48.8506 191.101 49.4946 190.261 50.2495 189.483C51.1438 188.601 52.124 187.857 53.1788 187.259C54.2299 186.664 55.3598 186.197 56.5319 185.87C58.8898 185.215 61.2998 185.228 63.5556 185.828C64.6617 186.123 65.8896 186.603 67.2049 187.254C68.4009 187.86 68.7793 187.89 68.8442 187.89C69.0457 187.89 69.2566 187.797 69.4857 187.61C69.7983 187.355 70.1668 186.909 70.5779 186.288C70.7287 186.059 70.9866 185.922 71.2593 185.922H71.852C72.2979 185.922 72.6616 186.279 72.6693 186.725L72.83 196.375C72.8337 196.595 72.7489 196.807 72.5944 196.962C72.4414 197.119 72.2307 197.206 72.0116 197.206H71.4835C71.1261 197.206 70.8097 196.974 70.7037 196.632C70.3511 195.504 70.0237 194.599 69.7297 193.948C69.4443 193.314 69.1271 192.75 68.7855 192.27C67.8078 190.844 66.5685 189.712 65.0925 188.894C63.629 188.08 62.1068 187.668 60.5687 187.668C59.7954 187.668 59.0131 187.812 58.2432 188.096C57.4934 188.375 56.8868 188.743 56.4409 189.189C55.6637 189.966 55.0882 191.072 54.7257 192.479C54.3447 193.964 54.1505 195.926 54.1505 198.31C54.1505 199.018 54.1826 199.733 54.2438 200.43C54.3061 201.131 54.3881 201.751 54.4893 202.277C54.5902 202.806 54.7172 203.335 54.8691 203.846C55.0108 204.324 55.1656 204.711 55.3272 205.001C55.6101 205.476 55.9466 205.91 56.3162 206.275C56.6813 206.635 57.1198 206.955 57.6204 207.227C58.121 207.5 58.6616 207.701 59.2274 207.827C60.5687 208.128 62.1108 208.078 63.5842 207.705C64.3952 207.501 65.0466 207.234 65.5223 206.915C66.3542 206.344 66.7457 205.631 66.7457 204.681V203.527C66.7457 201.282 65.7428 200.28 63.4983 200.28H61.56C61.1093 200.28 60.7431 199.914 60.7431 199.464V198.869C60.7431 198.418 61.1093 198.052 61.56 198.052H76.8617C77.3127 198.052 77.6786 198.418 77.6786 198.869V199.464C77.6786 199.914 77.3127 200.28 76.8617 200.28H76.3486C75.204 200.28 74.3683 200.537 73.8638 201.041C73.3578 201.546 73.1027 202.383 73.1027 203.527V208.779C73.1027 209.228 72.7353 209.596 72.2846 209.596H71.6927C71.4849 209.596 71.2854 209.517 71.1334 209.374C70.628 208.902 70.3026 208.712 70.1209 208.634C69.8655 208.53 69.5217 208.476 69.0996 208.476C68.6934 208.476 68.315 208.513 67.9745 208.591C67.6236 208.67 67.1054 208.852 66.4367 209.131C66.424 209.138 66.4104 209.142 66.3968 209.147C65.1895 209.579 64.2492 209.865 63.5221 210.018C62.7883 210.173 61.8866 210.251 60.84 210.251C58.8798 210.251 57.0203 209.951 55.315 209.358ZM84.8194 187.211V186.598C84.8194 186.149 85.1882 185.78 85.638 185.78H102.949C105.335 185.78 107.277 185.973 108.721 186.34C110.245 186.725 111.476 187.375 112.375 188.27C112.902 188.796 113.312 189.422 113.621 190.179C113.933 190.889 114.104 191.65 114.104 192.358C114.104 194.323 113.054 195.978 111.067 197.143C110.306 197.545 109.369 197.871 108.169 198.149C106.975 198.48 105.77 198.633 104.751 198.738C104.437 198.767 104.068 198.791 103.64 198.808C104.297 199.147 104.89 199.4 105.458 199.588C106.17 199.849 106.942 200.07 107.776 200.254C107.984 200.3 108.165 200.422 108.282 200.598L108.819 201.399C109.227 202.036 109.448 202.334 109.566 202.474C109.595 202.511 109.625 202.547 109.648 202.592C109.786 202.837 109.971 203.133 110.188 203.459C110.736 204.24 111.32 205.07 111.855 205.72C112.432 206.456 112.833 206.823 113.036 206.986C113.585 207.339 114.423 207.518 115.535 207.518H116.185C116.635 207.518 117.002 207.882 117.002 208.335V208.982C117.002 209.435 116.635 209.799 116.185 209.799H107.792C107.527 209.799 107.277 209.673 107.128 209.456L99.629 198.857H95.8363V204.293C95.8363 205.409 96.1019 206.243 96.6249 206.766C97.1195 207.257 97.9739 207.518 99.0986 207.518H99.7486C100.198 207.518 100.566 207.882 100.566 208.335V208.982C100.566 209.435 100.198 209.799 99.7486 209.799H85.638C85.1882 209.799 84.8194 209.435 84.8194 208.982V208.335C84.8194 207.882 85.1882 207.518 85.638 207.518H86.2469C87.4327 207.518 88.2371 207.277 88.7031 206.782L88.7355 206.75C89.2301 206.284 89.473 205.479 89.473 204.293V191.254C89.473 190.068 89.2301 189.262 88.7355 188.796C88.7281 188.785 88.7156 188.773 88.7031 188.764C88.2371 188.27 87.4327 188.028 86.2469 188.028H85.638C85.1882 188.028 84.8194 187.66 84.8194 187.211ZM200.477 187.211V186.599C200.477 186.149 200.843 185.782 201.294 185.782H214.642C215.374 185.782 216.15 185.813 216.972 185.847L217.266 185.859C218.254 185.938 219.107 186.015 219.836 186.091C220.512 186.159 221.221 186.241 221.804 186.375C223.79 186.807 225.251 187.546 226.256 188.633C227.341 189.764 227.889 191.158 227.889 192.777C227.889 193.914 227.619 194.942 227.086 195.829C226.555 196.716 225.796 197.463 224.829 198.051C223.881 198.628 222.763 199.049 221.408 199.335C220.203 199.628 218.743 199.772 216.967 199.772H211.647V204.293C211.647 206.549 212.651 207.556 214.908 207.556H216.014C216.465 207.556 216.832 207.922 216.832 208.374V208.983C216.832 209.435 216.465 209.801 216.014 209.801H201.257C200.805 209.801 200.44 209.435 200.44 208.983V208.374C200.44 207.922 200.805 207.556 201.257 207.556H202.057C204.288 207.556 205.283 206.549 205.283 204.293V191.251C205.283 188.992 204.318 188.028 202.057 188.028H201.294C200.843 188.028 200.477 187.66 200.477 187.211ZM183.198 207.481C184.245 207.132 185.081 206.657 185.682 206.066C186.78 204.94 187.342 203.291 187.342 201.176V193.173C187.342 190.895 186.737 189.417 185.491 188.652C185.137 188.431 184.77 188.277 184.394 188.192C183.979 188.098 183.35 188.039 182.522 188.019C182.078 188.009 181.725 187.647 181.725 187.202V186.609C181.725 186.158 182.089 185.792 182.542 185.792H193.393C193.845 185.792 194.211 186.158 194.211 186.609V187.202C194.211 187.629 193.882 187.985 193.458 188.018C192.852 188.065 192.378 188.145 192.044 188.254C191.732 188.354 191.399 188.531 191.054 188.779C190.574 189.14 190.204 189.63 189.938 190.262C189.661 190.923 189.522 191.723 189.522 192.644V201.558C189.522 204.147 188.787 206.174 187.337 207.587L187.332 207.59C186.539 208.35 185.673 208.904 184.76 209.241C182.975 209.911 180.826 210.251 178.38 210.251C176.584 210.251 174.925 210.072 173.451 209.717C171.943 209.354 170.669 208.824 169.663 208.142C167.682 206.777 166.68 204.805 166.68 202.279V191.268C166.68 189.022 165.678 188.021 163.431 188.021H162.518C162.069 188.021 161.701 187.654 161.701 187.202V186.609C161.701 186.158 162.069 185.792 162.518 185.792H178.028C178.478 185.792 178.846 186.158 178.846 186.609V187.202C178.846 187.654 178.478 188.021 178.028 188.021H176.252C175.116 188.021 174.281 188.276 173.77 188.783C173.261 189.287 173.003 190.124 173.003 191.268V202.616C173.003 203.74 173.261 204.711 173.77 205.503C174.286 206.301 175.014 206.906 175.992 207.344C177.003 207.795 178.237 208.025 179.66 208.025C180.924 208.025 182.112 207.842 183.198 207.481ZM175.833 220.887C179.979 219.322 183.957 217.339 187.93 215.272C184.422 218.068 180.571 220.411 176.616 222.585C148.514 237.446 111.88 234.883 86.688 215.272C102.295 223.857 119.963 228.33 137.617 228.33C150.641 228.33 163.654 225.898 175.833 220.887ZM145.987 197.617V197.553C145.982 196.203 145.81 194.884 145.48 193.633C145.163 192.438 144.708 191.376 144.131 190.473C143.506 189.558 142.831 188.887 142.084 188.45C142.068 188.441 142.055 188.433 142.042 188.425C141.691 188.192 141.242 187.985 140.673 187.795C140.231 187.647 139.76 187.573 139.275 187.571H139.251H139.208C138.302 187.575 137.519 187.719 136.815 188.004C136.018 188.32 135.405 188.715 134.931 189.217C134.358 189.827 133.863 190.546 133.427 191.426C133 192.271 132.677 193.244 132.465 194.312C132.249 195.394 132.138 196.576 132.138 197.81C132.138 199.351 132.31 200.795 132.645 202.107C133.012 203.427 133.474 204.462 134.088 205.352C134.697 206.194 135.445 206.877 136.247 207.31C137.051 207.759 137.967 207.977 139.063 207.977C140.486 207.977 141.667 207.596 142.68 206.811C143.739 205.965 144.548 204.791 145.081 203.33C145.084 203.324 145.084 203.317 145.088 203.312C145.684 201.768 145.987 199.854 145.987 197.617ZM107.167 192.326V192.279C107.167 190.457 106.579 188.028 101.501 188.028H95.8363V196.612H101.388C102.76 196.612 103.912 196.449 104.808 196.126C105.618 195.815 106.194 195.365 106.558 194.756C106.953 194.133 107.16 193.299 107.167 192.326ZM211.647 197.527H215.289C217.287 197.527 218.76 197.133 219.67 196.357C220.522 195.596 220.954 194.378 220.954 192.739C220.954 190.804 220.372 189.51 219.176 188.786C218.722 188.527 218.188 188.332 217.561 188.2C216.891 188.089 216.041 188.028 215.136 188.028H211.647V197.527Z" fill="#A5782D"/>
</svg>
